<svg width="35" height="40" viewBox="0 0 35 40" fill="none" xmlns="http://www.w3.org/2000/svg">
<path d="M33.7874 31.1721C33.177 32.5696 32.4544 33.856 31.6173 35.0387C30.4761 36.651 29.5418 37.767 28.8217 38.3868C27.7055 39.404 26.5095 39.925 25.2289 39.9546C24.3095 39.9546 23.2007 39.6953 21.9101 39.1694C20.6152 38.646 19.4253 38.3867 18.3372 38.3867C17.196 38.3867 15.9721 38.646 14.6631 39.1694C13.352 39.6954 12.2959 39.9694 11.4883 39.9966C10.2602 40.0484 9.03614 39.5126 7.81428 38.3867C7.03439 37.7127 6.05897 36.5571 4.89039 34.9202C3.63664 33.1721 2.60589 31.145 1.79836 28.8339C0.933534 26.3378 0.5 23.9205 0.5 21.5804C0.5 18.8997 1.08453 16.5877 2.25532 14.6502C3.17546 13.094 4.39956 11.8663 5.93164 10.9651C7.46368 10.0639 9.1191 9.60467 10.9018 9.57532C11.8773 9.57532 13.1564 9.87431 14.7461 10.4619C16.3312 11.0516 17.349 11.3506 17.7953 11.3506C18.1289 11.3506 19.2596 11.0009 21.1763 10.3039C22.989 9.65753 24.5188 9.38984 25.772 9.4953C29.1681 9.7669 31.7194 11.0935 33.4162 13.4836C30.379 15.3072 28.8765 17.8615 28.9064 21.1381C28.9338 23.6904 29.8682 25.8143 31.7045 27.5007C32.5366 28.2834 33.466 28.8883 34.5 29.3179C34.2758 29.9623 34.0391 30.5796 33.7874 31.1721ZM25.9988 0.800237C25.9988 2.80068 25.2612 4.66851 23.7912 6.39735C22.0172 8.45261 19.8715 9.64021 17.5446 9.45281C17.5134 9.20132 17.4978 8.94818 17.4978 8.69479C17.4978 6.77437 18.3414 4.71911 19.8396 3.03869C20.5876 2.18784 21.5389 1.48039 22.6924 0.916039C23.8436 0.360108 24.9324 0.0526618 25.9564 0C25.9863 0.26742 25.9988 0.534907 25.9988 0.800237Z" fill="#352E5B"/>
</svg>
