<svg width="59" height="62" viewBox="0 0 59 62" fill="none" xmlns="http://www.w3.org/2000/svg">
<path fill-rule="evenodd" clip-rule="evenodd" d="M38.341 0.399304C38.9249 0.956675 38.8719 1.46096 38.3145 1.00975C37.9429 0.691257 37.8898 0.691257 38.1022 1.00975C38.2614 1.30171 38.1818 1.35479 37.6509 1.22208C37.0936 1.06283 36.9343 1.14246 36.8282 1.6202C36.7485 1.9387 36.7751 2.38991 36.9078 2.60224C37.0405 2.84111 37.1732 2.92074 37.1732 2.78803C37.1732 2.65533 37.3855 2.73495 37.6244 2.92074C37.9429 3.18616 37.996 3.18615 37.8633 2.94728C37.7571 2.76149 37.8367 2.5757 38.0756 2.46953C38.2879 2.38991 38.4207 2.17758 38.341 1.99179C38.1818 1.59367 39.0842 1.59367 39.615 1.99179C39.8008 2.1245 40.3051 2.41644 40.7032 2.62878C41.1279 2.84111 41.3402 3.05344 41.181 3.10652C40.6236 3.29231 40.889 3.63735 41.4729 3.50464C41.9772 3.37193 42.0303 3.42502 41.7649 3.69043C41.4995 3.98239 41.526 4.11511 41.8976 4.38052C42.3222 4.69902 42.2957 4.77863 41.5791 5.36254L40.7828 5.99954L41.6322 5.86684C42.2692 5.78721 42.508 5.86684 42.6673 6.23842C42.7469 6.53038 42.9592 6.82233 43.1185 6.92849C43.2777 7.03466 43.2512 7.247 43.0123 7.51241C42.7204 7.88399 42.7469 7.93707 43.0919 7.77782C43.5431 7.61858 44.4456 8.28211 44.1536 8.57407C44.074 8.65369 44.1801 8.7864 44.419 8.89257C44.6579 8.97219 44.7906 9.26415 44.7375 9.5561C44.6844 9.82152 44.7375 10.0604 44.8968 10.0604C45.0295 10.0604 45.1091 10.2196 45.0826 10.3789C45.0295 10.5912 45.2153 10.6974 45.5338 10.6443C45.9584 10.5912 45.985 10.6178 45.6665 10.8301C45.4541 10.9628 45.1622 11.0159 45.0029 10.9097C44.8702 10.8035 44.5252 10.777 44.2598 10.8035C43.9944 10.8566 43.8086 10.7239 43.8086 10.4851C43.8086 10.2462 43.5962 10.0604 43.3043 10.0604C42.4815 10.0604 41.1544 10.6178 41.1544 10.9893C41.1544 11.1751 40.9952 11.3875 40.8359 11.4405C40.6236 11.5202 40.7298 11.706 41.1013 11.8917C41.7914 12.2633 42.2957 12.0245 41.6852 11.6529C41.3402 11.4405 41.3668 11.3875 41.7383 11.3875C42.0037 11.3875 42.2161 11.5202 42.2161 11.6794C42.2161 11.8387 42.3753 11.9183 42.5346 11.8387C42.7204 11.7856 43.1716 11.9714 43.5431 12.2368C43.9413 12.5553 44.2332 12.6349 44.2863 12.4757C44.3394 12.3164 44.4986 12.2633 44.6313 12.343C44.7906 12.4226 44.8171 12.2368 44.7375 11.8652C44.6048 11.3344 44.6844 11.2548 45.4011 11.2282C46.1177 11.2017 46.1442 11.2282 45.7195 11.5467C45.3214 11.8652 45.3214 11.8917 45.9584 11.9183C46.5954 11.9183 46.6485 11.9979 46.622 12.9003C46.5954 13.67 46.7281 13.962 47.1528 14.1743C47.4447 14.307 47.6571 14.5724 47.604 14.7582C47.5509 14.9175 47.8163 15.2625 48.241 15.4748C48.6391 15.6872 48.7984 15.8995 48.586 15.8995C48.2941 15.8995 48.3206 15.9791 48.6922 16.1915C49.0903 16.4303 49.1169 16.5365 48.8249 16.7223C48.5064 16.9346 48.5329 17.0143 48.9045 17.2531C49.515 17.5982 49.515 18.0494 48.9311 17.837C48.6656 17.7309 48.5595 17.7839 48.6656 17.9432C48.7718 18.1024 48.6657 18.3679 48.4533 18.5536C48.0021 18.9252 47.949 18.7394 48.3206 18.0494C48.5064 17.6512 48.3737 17.4124 47.6571 16.8285C46.7016 16.0853 46.3831 15.1829 47.1528 15.4748C47.5244 15.6076 47.5509 15.581 47.259 15.236C47.0201 14.944 46.8343 14.9175 46.5689 15.1033C46.1973 15.4218 46.1708 14.9705 46.5423 14.3866C46.6485 14.2274 46.622 13.9885 46.4627 13.9089C46.3035 13.8027 46.2238 13.8824 46.2504 14.0682C46.3035 14.2274 46.1708 14.4397 45.985 14.4928C45.6134 14.6521 45.5603 14.1478 45.9319 13.9089C46.33 13.67 46.2504 13.2454 45.7992 13.2454C45.5868 13.2454 45.4011 13.1126 45.4011 12.9799C45.4011 12.5818 44.5252 12.6615 43.9413 13.0861C43.6493 13.2984 43.2512 13.3781 43.0123 13.325C42.7734 13.2188 42.8265 13.3515 43.145 13.5904C43.4635 13.8558 43.782 13.9089 43.9413 13.7497C44.5783 13.1127 45.6134 13.8027 45.1356 14.5459C45.0029 14.8113 44.8968 14.8113 44.7375 14.599C44.6048 14.3601 44.4456 14.3601 44.1536 14.599C43.8351 14.8644 43.7289 14.8644 43.5431 14.5459C43.3574 14.2539 43.2247 14.2539 42.9858 14.4928C42.6142 14.8644 42.7469 15.1033 43.4104 15.2094C43.6493 15.236 43.9678 15.4483 44.1005 15.6606C44.3129 15.9261 44.3129 15.8464 44.1801 15.3687C44.074 14.944 44.189 14.8821 44.5252 15.1829C44.8171 15.4218 45.1091 15.5545 45.1887 15.4748C45.4276 15.2625 46.4627 15.8464 46.4627 16.1915C46.4627 16.3773 46.0646 16.4303 45.4541 16.3507C44.9233 16.2976 44.711 16.2976 44.9764 16.3507C45.4011 16.4569 45.4276 16.5365 45.1091 16.7223C44.8171 16.9081 44.8171 16.9612 45.1887 16.9612C45.4541 16.9612 45.6665 17.0673 45.6665 17.2266C45.6665 17.3593 45.8788 17.492 46.1708 17.492C46.4362 17.492 46.8077 17.6778 46.9935 17.8901C47.1793 18.1024 47.4447 18.2086 47.6305 18.1024C47.7898 17.9963 47.7367 18.1555 47.5244 18.4209C47.2855 18.7129 47.259 18.8456 47.4447 18.7129C47.6836 18.5802 47.7898 18.7129 47.7898 19.0579C47.7898 19.7746 47.9756 19.748 48.586 19.0049C48.9841 18.5271 49.1434 18.474 49.4088 18.7394C49.6742 19.0049 49.6742 19.0845 49.4354 19.0845C49.2496 19.0845 49.1169 19.2172 49.1169 19.403C49.1169 19.5622 49.3292 19.5091 49.6477 19.2172C50.1254 18.766 50.152 18.7925 50.3112 19.3764C50.3908 19.7215 50.497 20.2788 50.5236 20.6239C50.5501 20.9689 50.789 21.3671 51.0544 21.4998C51.3729 21.6855 51.479 21.951 51.3729 22.296C51.2667 22.6145 51.3463 22.8534 51.6383 22.9595C51.9568 23.0922 51.9833 23.1984 51.7445 23.4904C51.479 23.8089 51.5056 23.8354 51.8772 23.7027C52.1957 23.5965 52.3018 23.6761 52.3018 24.0743C52.3018 24.3928 52.4345 24.7113 52.5672 24.7909C52.7265 24.8971 52.7796 25.0829 52.7 25.2156C52.5938 25.3483 52.6734 25.4544 52.8592 25.4544C53.0981 25.4544 53.0981 25.5341 52.8592 25.826C52.6203 26.118 52.6203 26.2507 52.8857 26.4365C53.3369 26.7019 55.4072 32.8329 55.2745 33.4965C55.2214 33.7884 55.0091 33.9477 54.7436 33.8681C54.4782 33.815 54.319 33.6292 54.3455 33.4699C54.3986 33.2842 54.2924 33.1514 54.1597 33.1514C54.0005 33.1514 53.8943 33.2842 53.8943 33.4434C53.8943 33.6027 53.7085 33.6823 53.4962 33.5761C53.2573 33.4965 53.0981 33.5761 53.0981 33.815C53.0981 34.0273 53.2308 34.2131 53.3635 34.2131C53.5227 34.2131 53.7616 34.4785 53.8943 34.797C54.0536 35.2217 54.1332 35.2748 54.1332 34.9828C54.1597 34.7439 54.3721 34.4785 54.6109 34.3724C54.8763 34.2927 55.2479 34.1335 55.4603 34.0539C55.7257 33.9212 55.8053 34.0539 55.6991 34.5847C55.6195 34.9563 55.6461 35.2748 55.7522 35.2748C55.9115 35.2748 56.3096 36.416 56.4158 37.2654C56.4158 37.3981 56.575 37.7962 56.7608 38.1147C56.9997 38.5659 56.9997 38.6986 56.6812 38.8048C56.4954 38.8844 56.283 38.8579 56.23 38.7517C56.0973 38.4332 54.6906 38.1412 54.6906 38.4332C54.6906 38.5659 54.4782 38.7517 54.2128 38.8048C53.8943 38.8844 53.9474 38.9375 54.3986 38.964C54.7436 38.964 54.9825 39.0702 54.8763 39.1498C54.7171 39.3356 55.301 40.0522 55.6195 40.0522C55.6991 40.0522 55.6991 39.8134 55.6195 39.4949C55.4337 38.964 55.4603 38.964 56.2034 39.3622C57.1324 39.8399 57.7163 40.9016 57.2651 41.3528C57.0527 41.5651 57.0527 41.6447 57.2916 41.6447C57.6897 41.6447 57.6101 42.4675 57.212 42.786C57.0527 42.8922 57.1324 43.078 57.3978 43.2637C57.6632 43.3965 57.8755 43.768 57.8755 44.0334C57.8755 44.4846 57.7959 44.5112 56.9997 44.2192C56.4158 44.0069 56.283 43.9007 56.6015 43.8211C56.867 43.768 57.0793 43.6353 57.0793 43.5026C57.0793 43.3699 56.867 43.131 56.6015 42.9983C56.1769 42.7329 56.2034 42.7329 56.6812 42.7064C57.0793 42.7064 57.1324 42.6533 56.8404 42.4675C56.5485 42.2817 56.5485 42.2021 56.8404 42.0694C57.0527 41.9898 56.9466 41.9632 56.6015 42.0163C56.283 42.0694 56.0707 42.0163 56.1503 41.8836C56.3096 41.6447 55.7257 40.583 55.4337 40.583C55.3276 40.583 55.3541 40.9016 55.4868 41.2731C55.8849 42.2552 55.8053 42.494 55.2214 42.3082C54.5048 42.0694 54.5579 42.3879 55.3541 43.0249C55.7788 43.3699 55.9645 43.7149 55.9115 44.1131C55.8318 44.4316 55.7788 44.8031 55.7788 44.9359C55.7522 45.042 55.5664 45.0951 55.3541 44.9889C55.1152 44.9093 54.956 44.9889 54.956 45.2278C54.956 45.4401 55.1948 45.6259 55.4868 45.6259C55.9645 45.6259 56.1503 45.9179 56.0442 46.5283C56.0176 46.6345 56.1238 46.8999 56.3096 47.1123C56.4688 47.298 56.5219 47.59 56.4158 47.7492C56.2565 47.9881 56.6281 48.1474 57.1589 48.0412C57.2916 48.0147 57.3182 48.1208 57.212 48.2801C57.1324 48.4128 57.2385 48.6251 57.4774 48.7047C57.6897 48.8109 58.0082 49.1029 58.1675 49.3683C58.4064 49.8195 58.3267 49.8726 57.5836 49.8726C56.8935 49.8726 56.7873 49.8195 57.0793 49.4744C57.504 48.9701 57.212 48.572 56.5219 48.7313C56.1503 48.8374 56.0707 48.9701 56.2565 49.1559C56.6812 49.5806 56.6015 49.8726 56.1238 49.6868C55.7257 49.5541 55.7257 49.6071 56.1503 50.2176C56.3892 50.5892 56.6281 51.12 56.6812 51.3854C56.7343 51.6508 56.7873 51.9163 56.7873 51.9693C56.8139 52.0224 57.0793 51.8632 57.4243 51.6508C58.0082 51.2793 58.0348 51.2793 58.0082 51.8101C57.9817 52.102 57.7694 52.3675 57.504 52.4205C56.4158 52.5798 56.2565 52.739 56.6015 53.3229C56.7873 53.6149 57.0262 53.8538 57.1589 53.8538C57.2651 53.8538 57.3182 53.7476 57.2385 53.6414C57.1855 53.5353 57.3447 53.4026 57.6367 53.4026C58.1144 53.3495 58.1144 53.376 57.7163 53.7742C57.3182 54.1723 57.3182 54.2519 57.7163 54.5173C58.2471 54.9154 58.2737 55.4463 57.7694 55.4463C57.557 55.4463 57.3447 55.6055 57.2651 55.8178C57.1589 56.0833 57.2651 56.1363 57.6367 56.0567C58.1675 55.8975 58.3267 56.3487 57.8755 56.6406C57.6632 56.7733 57.6897 56.9326 57.9021 57.198C58.3002 57.7023 57.9552 57.6757 57.4509 57.1715C56.8404 56.5875 56.6812 56.6672 56.6015 57.7288C56.5219 58.9763 56.3892 59.1621 55.5664 59.1621C55.0356 59.1621 54.9294 59.0559 55.0621 58.6843C55.1683 58.3658 55.0621 58.4189 54.6906 58.8701C54.3986 59.2152 54.1597 59.6664 54.1597 59.8787C54.1597 60.091 53.8943 60.5157 53.5493 60.8076C53.2308 61.0996 53.1246 61.2323 53.3369 61.1261C53.5758 61.02 53.6554 61.0731 53.5758 61.3119C53.4962 61.5243 53.2308 61.6304 52.9388 61.6039C52.3815 61.4977 51.7445 60.7546 51.8772 60.3299C51.9568 60.1441 51.7445 60.091 51.3463 60.1706C50.6563 60.3033 49.5415 59.5337 49.8069 59.1355C49.8866 59.0028 49.7538 58.8967 49.515 58.8967C49.2761 58.8967 49.1699 58.7639 49.2496 58.6312C49.3292 58.472 49.2496 58.3658 49.0372 58.3658C48.8249 58.3658 48.5595 58.18 48.4799 57.9412C48.4002 57.7288 48.1879 57.6227 48.0552 57.7023C47.6571 57.9412 46.675 56.7733 46.8608 56.2956C46.9405 56.0567 46.8343 55.9771 46.4627 56.1098C45.7992 56.3221 45.7461 55.7648 46.3831 55.4993C46.6485 55.3932 46.8874 55.1543 46.9405 54.9685C47.0201 54.5439 46.8608 54.5704 46.33 55.0747C45.9584 55.4728 45.8523 55.4728 45.2683 55.0747C44.8968 54.8358 44.419 54.7296 44.1536 54.8358C43.7289 54.9951 43.7024 54.9685 44.074 54.5173C44.4456 54.0661 44.419 54.0396 43.8882 54.1723C43.5166 54.2784 43.0389 54.1457 42.6407 53.8272C42.2426 53.5087 41.818 53.4026 41.526 53.5087C41.234 53.6149 41.1279 53.5884 41.234 53.4026C41.526 52.9514 41.1279 52.2082 40.7298 52.3675C40.5174 52.4471 40.3582 52.3409 40.3582 52.102C40.3582 51.8897 40.2255 51.7835 40.0928 51.8632C39.9335 51.9428 39.5619 51.9428 39.2169 51.8366C38.8453 51.7128 38.8276 51.5889 39.1638 51.465C39.5619 51.3323 39.4027 51.2527 38.5534 51.12C37.3855 50.9077 37.2263 50.7219 37.7571 50.1645C38.0225 49.8991 37.9694 49.8991 37.4917 50.1645C36.9609 50.483 36.8547 50.483 36.6158 50.0584C36.4566 49.8195 36.1646 49.6071 35.9523 49.6071C35.74 49.6071 35.6073 49.501 35.6869 49.3683C35.793 49.2356 35.6338 49.1825 35.3418 49.2621C34.7314 49.4214 34.3333 48.864 34.7845 48.4659C35.0499 48.227 35.0764 48.227 34.9437 48.4659C34.811 48.7047 34.8906 48.7578 35.2091 48.6251C35.6073 48.4924 35.6073 48.4393 35.2091 48.227C34.9703 48.0943 34.5456 48.0677 34.2536 48.1474C33.9617 48.2535 33.7228 48.2005 33.7228 48.0412C33.7228 47.882 34.0148 47.7492 34.3598 47.7492C34.7579 47.7492 35.0499 47.5635 35.103 47.2715C35.2091 46.8734 35.1295 46.7937 34.6252 46.8999C34.2802 46.953 34.0679 47.1388 34.174 47.298C34.2802 47.4573 34.1209 47.5104 33.7759 47.4307C33.2716 47.298 33.2185 47.3511 33.3512 47.9085C33.4574 48.3066 33.4043 48.5455 33.2185 48.5455C33.0593 48.5455 32.9266 48.3597 32.9266 48.1474C32.9266 47.935 32.7939 47.7492 32.6346 47.7492C32.5019 47.7492 32.4223 47.6431 32.5019 47.5369C32.5815 47.4042 32.5019 47.298 32.3161 47.2715C31.3341 47.1919 30.936 46.9795 31.0156 46.5814C31.0687 46.3426 30.936 46.1568 30.7236 46.1568C30.5113 46.1568 30.1397 45.9179 29.8743 45.6259C29.6089 45.334 29.2373 45.0951 29.025 45.0951C28.733 45.0951 28.5738 44.7766 28.6534 44.2458C28.6799 44.0334 27.9633 44.1396 27.7244 44.3785C27.6183 44.4846 27.7244 44.5643 27.9633 44.5643C28.2287 44.5643 28.4145 44.7501 28.4145 44.9889C28.4145 45.334 28.2287 45.2809 27.5121 44.7235C27.0078 44.3519 26.5301 44.0334 26.4505 44.0334C26.132 44.0334 25.2561 43.131 25.3888 42.9452C25.4419 42.8391 25.2826 42.8125 24.9907 42.8922C24.7253 42.9718 24.4068 42.8656 24.3006 42.6798C24.1679 42.494 24.1944 42.4144 24.3271 42.5206C24.4864 42.6002 24.7518 42.5737 24.9641 42.4144C25.3092 42.2286 25.3092 42.1755 24.9641 42.149C24.7518 42.149 24.3537 42.0959 24.0883 42.0428C23.8494 41.9897 23.6901 42.0694 23.7963 42.2021C24.0883 42.6798 23.584 42.4144 23.0001 41.7774C22.655 41.4058 22.2304 41.1139 22.0446 41.1139C21.8588 41.1139 21.2749 40.7954 20.7706 40.4238C20.0805 39.8664 19.9478 39.6541 20.2132 39.4683C20.4786 39.3091 20.3725 39.2825 19.9478 39.3887C19.3904 39.5479 19.3373 39.4949 19.4701 39.0171C19.5762 38.5394 19.5231 38.5128 19.0985 38.7517C18.7534 38.9109 18.5942 38.9109 18.5942 38.7252C18.5942 38.5924 18.3819 38.4597 18.1164 38.4332C17.851 38.4332 17.7979 38.3536 17.9837 38.2739C18.6738 38.0085 18.3288 37.3981 17.5325 37.3981C17.0548 37.3981 16.6567 37.2388 16.577 37C16.4709 36.7876 16.2851 36.6815 16.0993 36.7876C15.887 36.9203 15.887 36.8673 16.0993 36.5753C16.3382 36.2833 16.3382 36.1241 16.0462 35.8587C15.7277 35.5667 15.6746 35.5933 15.6746 35.9914C15.6481 36.416 15.6215 36.4426 15.3296 36.0445C15.1438 35.8056 14.5333 35.3013 13.976 34.9032C13.3655 34.5051 13.1266 34.2131 13.3921 34.2131C13.6309 34.2131 13.8167 34.0804 13.8167 33.9212C13.8167 33.7884 13.7106 33.7088 13.5779 33.815C13.4451 33.8946 13.2594 33.8415 13.1532 33.7088C13.0736 33.5761 12.7816 33.4965 12.4897 33.5496C12.1712 33.6026 12.0119 33.5496 12.0915 33.4434C12.1446 33.3107 11.9854 33.1514 11.6934 33.0718C10.9768 32.886 11.0299 32.4083 11.7465 32.2756C12.0915 32.2225 11.9588 32.196 11.4811 32.249C11.0033 32.2756 10.6848 32.2225 10.7645 32.0898C10.8441 31.9836 10.6052 31.7978 10.2336 31.7182C9.86205 31.6121 9.59663 31.4528 9.59663 31.3466C9.7028 30.7627 9.51701 30.5238 9.11889 30.6831C8.82693 30.7893 8.74731 30.7627 8.88001 30.5504C8.98618 30.3646 8.90656 30.1523 8.66768 30.0726C8.45535 29.993 8.18994 29.7011 8.11031 29.4091C8.00415 29.1437 7.76527 28.9048 7.55294 28.9048C7.34061 28.9048 7.18136 28.7987 7.18136 28.6659C7.18136 28.5332 6.51783 27.7635 5.72158 26.9142C4.12909 25.2686 3.62481 24.5255 3.86368 24.1274C3.94331 23.9681 3.78406 23.8619 3.4921 23.8619C2.88165 23.8619 2.74894 23.4638 3.25323 23.2515C3.46556 23.1719 3.38593 23.0922 3.12052 23.0922C2.8551 23.0657 2.69586 22.9595 2.80202 22.8268C2.88165 22.6941 2.80202 22.4818 2.64277 22.4022C2.51006 22.296 2.43044 22.0306 2.51006 21.8182C2.61623 21.5263 2.56315 21.4732 2.27119 21.5528C2.05886 21.659 1.81999 21.6059 1.74036 21.4998C1.66074 21.3671 1.79345 21.1813 2.03232 21.1016C2.53661 20.9158 2.27119 20.4646 1.44841 20.1461C1.05029 19.9869 0.864498 19.748 0.970665 19.4826C1.05029 19.2703 1.23608 19.1641 1.36879 19.2437C1.50149 19.3234 1.52803 19.1907 1.44841 18.9783C1.36878 18.7394 1.18299 18.6333 1.05029 18.7129C0.731789 18.8987 0.758331 18.7394 1.12991 17.837C1.28916 17.4389 1.44841 17.0142 1.44841 16.9081C1.47495 16.8284 1.55457 16.6427 1.66074 16.563C1.76691 16.4569 1.74036 16.1649 1.60766 15.8995C1.3157 15.3421 1.50149 15.0767 2.0854 15.2891C2.35082 15.3952 2.29773 15.2625 1.92616 14.8909C1.34224 14.307 0.917576 14.0947 1.18299 14.5459C1.26262 14.6521 1.02375 14.7051 0.678707 14.6255C0.0417099 14.5194 -0.276783 13.7762 0.307129 13.7762C0.466377 13.7762 0.545998 13.6169 0.466373 13.4046C0.386749 13.1923 0.492916 12.9534 0.70525 12.8738C0.944122 12.7942 1.05029 12.6084 0.970665 12.4757C0.784874 12.2102 1.3157 12.2368 1.79345 12.5287C1.95269 12.6349 2.19157 12.5818 2.29774 12.4226C2.4039 12.2102 2.37736 12.1837 2.19157 12.2899C1.87307 12.4757 1.18299 11.1751 1.47495 10.9097C1.55457 10.8301 1.60766 10.9363 1.60766 11.1486C1.6342 11.4405 1.68728 11.4405 1.9527 11.0955C2.13849 10.8566 2.53661 10.5912 2.88165 10.4851C3.22668 10.3789 3.59827 10.0073 3.73097 9.66226C3.91676 9.18451 4.10255 9.07835 4.5803 9.18452C5.05804 9.29068 5.11113 9.26415 4.79263 9.02528C4.39451 8.73332 4.44759 8.70677 5.50925 8.65369C5.77467 8.62715 6.09316 8.46789 6.19933 8.2821C6.49128 7.8309 7.15482 7.83091 7.34061 8.30865C7.42023 8.54753 7.73873 8.65369 8.11031 8.57407C8.53498 8.49444 8.74731 8.62714 8.85347 8.99872C8.9331 9.31722 9.19851 9.52956 9.49047 9.50302C9.91513 9.47648 9.91513 9.44993 9.49047 9.34376C8.95964 9.21105 8.93309 9.02527 9.41084 8.38827C9.67626 8.04324 9.96821 7.96362 10.4725 8.09632C10.8441 8.17595 11.1095 8.36173 11.0299 8.4679C10.9502 8.6006 11.1626 8.62714 11.4545 8.54752C11.8792 8.44135 11.9854 8.49445 11.9057 8.75986C11.8261 8.97219 11.3749 9.21107 10.8706 9.29069C10.3663 9.39686 10.1805 9.47648 10.4194 9.50302C10.6848 9.50302 10.8972 9.63572 10.8972 9.79497C10.8972 10.2727 11.2953 10.0869 12.2242 9.15798C12.9674 8.41482 13.2594 8.30866 13.7371 8.49445C14.0821 8.62715 14.3476 8.65369 14.3476 8.6006C14.3476 8.52098 14.5599 8.68023 14.8253 8.9191C15.1173 9.18452 15.2765 9.50302 15.1969 9.63573C15.1173 9.76843 15.3296 9.82151 15.6215 9.74188C15.94 9.63572 16.2851 9.68881 16.3647 9.82152C16.4443 9.95423 16.3912 10.0604 16.232 10.0604C16.0728 10.0604 16.0197 10.2196 16.0993 10.432C16.1789 10.6443 16.0462 10.8566 15.7542 10.9362C15.3827 11.0424 15.3827 11.069 15.8604 11.0955C16.2055 11.0955 16.4709 10.9893 16.4709 10.8035C16.4709 10.6443 16.5505 10.5647 16.6301 10.6443C16.7097 10.7505 17.1344 10.6974 17.6122 10.5647C18.2226 10.3789 18.3553 10.4054 18.1164 10.6443C17.6387 11.122 17.7183 11.3875 18.3022 11.3875C18.5942 11.3875 18.8861 11.4936 18.9658 11.6263C19.0719 11.759 18.8596 11.8121 18.5411 11.7325C18.1518 11.644 18.1076 11.759 18.4084 12.0775C18.8861 12.5818 18.9127 12.5818 19.2843 12.0775C19.4966 11.7856 19.6558 11.6794 19.6558 11.8387C19.6558 11.9979 19.9478 12.051 20.3459 11.9714C20.8502 11.8917 21.0095 11.9448 20.8768 12.1572C20.6113 12.5553 21.0625 12.5287 21.4872 12.1041C21.7792 11.8387 21.7792 11.8918 21.5137 12.343C21.328 12.6349 21.036 12.9003 20.8768 12.9269C20.7175 12.9269 20.2132 13.0065 19.7886 13.0861L18.9923 13.2188L19.7089 12.9003C20.1336 12.7411 20.4521 12.5287 20.4521 12.4226C20.4521 12.1572 19.2843 12.4757 19.0719 12.7941C18.9658 12.9534 18.7534 12.9003 18.488 12.6349C17.9837 12.1572 17.3467 12.2633 17.3467 12.8472C17.3467 13.1126 17.6387 13.2454 18.1695 13.2719C18.6207 13.2984 19.3904 13.3515 19.8682 13.4046C20.4521 13.4842 20.9829 13.325 21.5137 12.9534C22.1773 12.4491 22.31 12.4226 22.8143 12.7676C23.1062 12.9799 23.292 13.2188 23.2389 13.2984C23.1593 13.3781 23.3186 13.5108 23.6371 13.5904C23.929 13.67 24.1679 13.6169 24.1679 13.4842C24.1679 13.3515 24.3006 13.2454 24.4333 13.2454C24.5926 13.2454 24.6722 13.325 24.6722 13.4312C24.6456 13.5639 24.6722 13.9354 24.6987 14.307C24.7518 14.7848 24.8049 14.8378 24.8845 14.5193C24.9907 14.1212 25.0968 14.0947 25.5746 14.3601C25.9462 14.5547 25.9639 14.7317 25.6277 14.8909C25.1765 15.0767 25.1765 15.1033 25.7338 14.9971C26.3443 14.8644 27.6183 15.289 27.6183 15.6341C27.6183 15.7403 27.9102 15.7668 28.2818 15.6872C28.6799 15.6341 28.9454 15.6872 28.9454 15.873C28.9454 16.0588 28.8126 16.1118 28.6799 16.0322C28.5207 15.926 27.8041 16.0588 27.0875 16.2976C25.8665 16.6957 25.6808 16.6958 24.9376 16.3242C23.7963 15.7403 23.7432 15.7933 24.6191 16.5896C25.0703 17.0143 25.5215 17.2 25.8665 17.1204C26.1585 17.0408 26.5301 17.0939 26.7159 17.2531C26.9282 17.4389 27.0875 17.4389 27.2202 17.2266C27.2998 17.0939 27.6183 16.9612 27.8837 16.9612C28.2287 16.9612 28.3349 16.8285 28.2553 16.5896C28.0695 16.1118 29.1311 16.3242 29.7681 16.8815C30.299 17.3062 31.2279 17.0143 31.918 16.1915C32.5019 15.5014 32.263 14.8378 31.4403 14.8378C30.8829 14.8378 30.8298 14.7848 31.1218 14.4663C31.3075 14.2539 31.5464 14.1478 31.626 14.2009C31.7322 14.2539 31.8649 14.1212 31.9711 13.9089C32.0507 13.6435 31.9445 13.5108 31.6526 13.5108C31.3606 13.5108 31.3075 13.4312 31.4933 13.2984C31.8649 13.0861 32.0507 11.9183 31.8118 11.4936C31.4402 10.9363 31.9711 9.71534 32.6612 9.47647C32.9531 9.3703 32.8735 9.2376 32.3427 8.99872C31.9445 8.81293 31.573 8.49443 31.4933 8.2821C31.4137 8.06977 31.4668 7.99015 31.5995 8.06977C31.7587 8.1494 31.8649 8.04324 31.8649 7.83091C31.8649 7.61858 32.0507 7.247 32.2896 7.03467C32.6081 6.71617 32.6081 6.60999 32.3427 6.60999C32.0772 6.60999 32.0772 6.55692 32.3692 6.37113C32.6081 6.21188 32.6346 6.07917 32.4223 5.97301C32.263 5.86684 32.1303 5.65451 32.1303 5.5218C32.1303 5.36255 32.2365 5.30947 32.3692 5.38909C32.5019 5.46872 32.6612 5.3891 32.7408 5.17677C32.8469 4.93789 33.1124 4.85826 33.4309 4.93789C33.7759 5.01751 33.9882 4.96443 33.9882 4.77864C33.9882 4.59285 33.8555 4.53976 33.7228 4.61939C33.5636 4.72555 33.2716 4.64593 33.0593 4.48668C32.7939 4.24781 32.555 4.2478 32.3161 4.43359C32.1038 4.59284 31.7587 4.59284 31.3341 4.43359C30.8033 4.2478 30.7502 4.14164 31.0687 3.95585C31.3075 3.7966 31.5199 3.82314 31.6526 4.03547C31.7853 4.2478 31.8649 4.22126 31.8649 3.90276C31.8649 3.66389 31.7057 3.39848 31.5199 3.3454C31.3606 3.26577 31.6526 3.26577 32.2365 3.3454C33.0327 3.47811 33.2451 3.42503 33.1389 3.13307C33.0593 2.92074 32.8204 2.78803 32.5815 2.78803C32.21 2.81458 32.1038 2.41644 32.3957 2.09795C32.6081 1.88562 33.8024 2.84111 33.6432 3.07998C33.5636 3.21269 33.7228 3.3454 34.0148 3.3454C34.7314 3.39848 34.6518 3.21269 33.6432 2.33683L32.7939 1.56712H33.6432C34.1209 1.56712 34.5191 1.46096 34.5191 1.32826C34.5191 1.22209 34.2271 1.16899 33.8555 1.24862C33.3778 1.32824 33.192 1.24863 33.192 0.930133C33.192 0.69126 33.3247 0.50546 33.4839 0.50546C33.6166 0.50546 33.6697 0.638171 33.5636 0.823961C33.4574 1.00975 33.7228 0.877044 34.174 0.558546C35.1295 -0.131531 35.5542 -0.158069 36.2708 0.346218C36.6955 0.691257 36.8547 0.691251 37.359 0.372753C37.8633 0.0277143 37.996 0.027724 38.341 0.399304ZM34.3333 2.25721C34.4129 2.33683 34.6518 2.36337 34.8376 2.28374C35.0499 2.20412 34.9703 2.1245 34.6783 2.1245C34.3864 2.09796 34.2271 2.17758 34.3333 2.25721ZM38.8453 3.07998C38.9249 3.15961 39.1373 3.13306 39.2965 3.0269C39.5354 2.86765 39.5354 2.76149 39.27 2.60224C38.8984 2.38991 38.5534 2.78803 38.8453 3.07998ZM38.341 3.58428C38.4207 4.06202 39.8273 4.38052 39.8273 3.92931C39.8273 3.77007 39.9601 3.74353 40.1458 3.84969C40.3316 3.95586 40.3582 3.92932 40.252 3.71699C40.1458 3.55774 39.9601 3.4781 39.8273 3.55773C39.7212 3.63735 39.3231 3.58428 38.978 3.45157C38.6595 3.29232 38.341 3.18616 38.3145 3.18616C38.2879 3.15962 38.3145 3.34541 38.341 3.58428ZM35.9788 3.42502C35.8727 3.58427 35.6603 3.61081 35.5011 3.50464C35.3153 3.39848 35.3418 3.50464 35.5542 3.77006C35.9523 4.27434 36.5097 4.40706 36.2177 3.92931C36.1381 3.77007 36.2177 3.53119 36.4035 3.39848C36.6424 3.23924 36.6689 3.15961 36.4566 3.15961C36.2973 3.15961 36.0585 3.29231 35.9788 3.42502ZM38.6861 4.67247C38.3145 4.8848 38.5003 5.20329 39.1638 5.49525C39.5619 5.68104 39.8804 5.70758 39.9601 5.54834C40.0662 5.38909 40.2786 5.28292 40.4378 5.28292C40.6236 5.28292 40.544 5.46872 40.2786 5.65451C39.8273 5.99955 39.907 6.87541 40.3847 6.87541C40.5174 6.87541 40.6236 7.0612 40.6236 7.27353C40.6236 7.48586 40.4378 7.67165 40.2255 7.67165C40.0131 7.67165 39.8539 7.59203 39.8804 7.45932C39.9335 7.35316 39.8804 7.24699 39.7477 7.19391C39.4292 7.08774 39.4558 7.24699 39.8539 7.85745C40.1724 8.41482 40.252 8.41481 40.6767 8.01669C40.9421 7.77781 41.1544 7.72473 41.1544 7.88398C41.1544 8.04323 41.3933 8.25556 41.6852 8.33519C41.9772 8.41481 42.2161 8.70677 42.2161 8.97219C42.2161 9.34377 42.3753 9.42339 42.9062 9.31723C43.3839 9.22875 43.437 9.04297 43.0654 8.75986C42.7734 8.52099 42.4815 8.09632 42.4284 7.80436C42.3222 7.16736 40.9952 6.26497 40.5705 6.50384C40.3582 6.63655 40.3316 6.53038 40.4643 6.18534C40.9421 5.04405 40.9952 4.67247 40.6236 4.8848C40.3582 5.04405 40.3051 4.99098 40.4378 4.64594C40.597 4.24781 40.5174 4.19472 39.7477 4.35397C39.2965 4.46014 38.8188 4.59285 38.6861 4.67247ZM32.9266 7.247C32.9266 7.30008 33.1124 7.43279 33.3512 7.51241C33.5636 7.59203 33.6697 7.56549 33.5901 7.40624C33.4309 7.14082 32.9266 7.03466 32.9266 7.247ZM32.1303 8.44136C32.0507 8.4679 32.1569 8.57407 32.3692 8.70677C32.7939 8.97219 33.4574 8.81294 33.4574 8.44136C33.4574 8.30865 33.192 8.25557 32.8469 8.30865C32.5284 8.38828 32.21 8.44136 32.1303 8.44136ZM33.9882 8.57407C33.9882 8.62715 34.174 8.73332 34.3864 8.83948C34.5987 8.91911 34.7845 8.86602 34.7845 8.73331C34.7845 8.57406 34.5987 8.4679 34.3864 8.4679C34.174 8.4679 33.9882 8.52098 33.9882 8.57407ZM7.63256 9.31723C7.5264 9.58264 7.42023 9.5561 7.2079 9.26414C7.02211 8.99872 6.91595 8.97219 6.91595 9.18452C6.91595 9.37031 6.70361 9.5561 6.4382 9.5561C6.19933 9.58265 6.46474 9.6888 7.04865 9.79497C7.68565 9.92768 8.21648 9.90113 8.37573 9.74188C8.53498 9.58263 8.45535 9.5561 8.11031 9.68881C7.63256 9.8746 7.63256 9.84805 7.95106 9.44993C8.13685 9.18452 8.18994 8.99872 8.03069 8.99872C7.87144 8.99872 7.68565 9.15798 7.63256 9.31723ZM36.9874 10.0338C36.7485 10.3258 36.4035 10.485 36.2177 10.4054C36.0054 10.3258 35.7665 10.4585 35.6869 10.6974C35.6073 10.9363 35.4215 11.0424 35.2888 10.9628C35.1561 10.8832 35.0499 11.0159 35.0499 11.2282C35.0499 11.4671 34.8376 11.6529 34.5987 11.6529C33.7759 11.6529 34.5191 12.0245 35.448 12.0775C36.0319 12.1041 36.2973 12.0245 36.1912 11.8387C36.085 11.6794 36.2443 11.6263 36.6158 11.7325C37.014 11.8121 37.1732 11.759 37.0936 11.5732C37.014 11.3875 36.8282 11.2813 36.6689 11.3344C36.4831 11.3609 36.4035 11.2813 36.5097 11.122C36.5893 10.9893 36.8547 10.8566 37.0405 10.8566C37.2528 10.8566 37.359 10.6974 37.2794 10.4851C37.1997 10.2462 37.4121 10.0073 37.8898 9.84805C38.5534 9.60918 38.5799 9.5561 38.0225 9.5561C37.704 9.52956 37.2263 9.76843 36.9874 10.0338ZM33.537 10.3789C34.1209 10.7505 34.7579 10.6178 34.7048 10.1135C34.6783 9.68881 34.5721 9.66227 33.9351 9.90114C33.4309 10.0869 33.3247 10.2462 33.537 10.3789ZM14.5599 10.1135C14.7457 10.2993 14.8784 10.3258 14.8784 10.1666C14.8784 9.79497 14.5599 9.47647 14.3741 9.66226C14.321 9.74189 14.4006 9.95422 14.5599 10.1135ZM13.1532 9.79497C12.6489 10.0073 12.6489 10.0338 13.2063 10.0338C13.5248 10.0604 13.8698 9.92768 13.9494 9.79497C14.1352 9.47647 13.8963 9.47647 13.1532 9.79497ZM41.1544 10.0073C41.1544 10.14 40.9952 10.2462 40.8094 10.2727C40.6501 10.2727 40.1724 10.3523 39.7743 10.4054C39.3761 10.4585 39.1107 10.432 39.1638 10.2993C39.2434 10.1931 38.9515 10.1135 38.5268 10.1135C37.9694 10.14 37.704 10.2993 37.5979 10.6974C37.3059 11.7856 37.4386 12.396 37.9694 12.5287C38.633 12.688 38.6861 13.2454 38.0225 13.2454C37.6244 13.2719 37.6244 13.2984 38.1022 13.6966C38.5268 14.0151 38.5268 14.0681 38.1818 13.962C37.5182 13.7231 37.3325 14.2274 37.9694 14.5724C38.2614 14.7317 38.5799 15.1563 38.6595 15.5014C38.7391 15.873 38.9515 16.1649 39.0842 16.1649C39.27 16.1649 39.27 16.2976 39.0842 16.51C38.9249 16.6957 38.8719 17.1204 38.9515 17.4655C39.0576 17.837 38.978 18.1821 38.7391 18.3413C38.4472 18.5536 38.4737 18.5537 38.8719 18.4475C39.27 18.3148 39.3496 18.3944 39.2169 18.9518C39.1373 19.4561 39.1904 19.6153 39.4292 19.5091C39.6946 19.4295 39.7477 19.6153 39.6946 20.1727C39.5885 20.8628 39.6416 20.9158 40.0928 20.677C40.4643 20.4912 40.6236 20.4912 40.6236 20.677C40.6236 20.8097 40.4643 20.9424 40.2786 20.9424C40.0662 20.9689 40.0928 21.0485 40.3582 21.2874C40.5705 21.4732 40.7563 21.7652 40.7828 21.9244C40.8359 22.7207 40.9155 22.8268 41.1544 22.6676C41.3137 22.5614 41.4198 22.5879 41.3933 22.7207C41.2606 23.4373 41.4729 24.1274 41.818 24.1274C42.3222 24.1274 42.3222 24.3662 41.7649 24.9767C41.526 25.2421 41.4729 25.4544 41.6322 25.4544C41.7914 25.4544 41.9507 25.3483 42.0037 25.2156C42.0303 25.0829 42.3222 25.1359 42.6142 25.3483C43.1185 25.7198 43.1185 25.7729 42.6673 26.0914C42.0568 26.5426 42.0834 27.0469 42.7204 27.0469C43.3043 27.0469 43.6759 27.4716 43.3043 27.6839C42.8531 27.9759 43.3574 30.2319 43.9944 30.7096C44.2598 30.8954 44.4456 31.1343 44.419 31.2405C44.419 31.3466 44.5252 31.3997 44.6844 31.3466C44.8437 31.2935 44.7641 31.5059 44.4986 31.7978C44.1005 32.249 44.074 32.4083 44.3394 32.7533C44.6048 33.0718 44.6048 33.1514 44.2332 33.1514C43.9678 33.1514 43.8351 33.0718 43.9147 32.9391C44.1536 32.541 43.3308 31.7713 42.8 31.9305C42.508 32.0367 42.1895 31.9836 42.0834 31.8244C41.8445 31.4263 41.4198 31.5059 41.4198 31.9571C41.4198 32.1694 41.7118 32.4083 42.0834 32.5145C42.455 32.5941 42.7469 32.7799 42.7469 32.9126C42.7469 33.2576 42.4284 33.2045 41.8445 32.7533C41.1279 32.196 40.4378 32.2225 40.889 32.7533C41.0748 32.9657 41.3402 33.0718 41.4995 32.9657C41.6587 32.8595 41.6852 32.9391 41.5791 33.1249C41.4464 33.3107 41.5791 33.6823 41.8445 33.9742C42.1099 34.2662 42.163 34.4785 42.0037 34.4785C41.818 34.4785 41.6852 34.3458 41.6852 34.1866C41.6852 34.0539 41.5525 34.0008 41.3668 34.1069C41.1544 34.2397 41.3137 34.4254 41.818 34.6378C42.2692 34.8236 42.4549 34.9828 42.2692 35.0093C42.0834 35.0093 42.0037 35.1421 42.1099 35.3013C42.1895 35.4606 42.1365 35.6729 41.9772 35.7791C41.7914 35.9118 41.8445 36.1506 42.2161 36.5487C42.5877 36.9469 42.6407 37.1327 42.4284 37.1592C42.163 37.1592 42.163 37.2123 42.4019 37.3185C43.0123 37.5573 42.7734 38.1943 42.0834 38.1943C41.4729 38.1943 41.4464 38.2474 41.7383 38.7252C42.0037 39.1498 42.0037 39.3091 41.7118 39.5745C41.4464 39.8134 41.3933 39.8133 41.526 39.601C41.6322 39.3887 41.3933 39.2029 40.8359 39.0437C40.3582 38.9375 39.9601 38.6721 39.9601 38.4597C39.9601 38.2739 39.4027 37.5308 38.7126 36.8407C38.0225 36.1506 37.5182 35.5136 37.5979 35.434C37.6509 35.3544 37.6244 35.3278 37.5448 35.4075C37.1732 35.6729 36.4035 34.9828 36.5627 34.5581C36.6689 34.2662 36.6424 34.1866 36.43 34.3193C36.2443 34.4254 36.1115 34.3724 36.1115 34.2131C36.1115 34.0539 36.0054 33.9742 35.8992 34.0539C35.6338 34.2131 34.7314 33.2045 34.8906 32.9126C34.9703 32.8064 34.4394 32.4879 33.6963 32.2225C32.9797 31.9305 32.3957 31.612 32.3957 31.4793C32.3957 31.1608 31.8384 30.6831 30.936 30.2319C30.4848 30.0196 29.9805 29.6214 29.7947 29.3826C29.6089 29.1437 29.2108 28.8783 28.8657 28.8252C28.4765 28.7544 28.4941 28.6482 28.9188 28.5067C29.5293 28.2944 29.5293 28.2678 29.0515 28.1086C28.7861 28.0024 28.388 28.0289 28.2022 28.1882C27.9633 28.374 27.7775 28.374 27.5652 28.1617C27.3263 27.9228 27.3263 27.8432 27.5652 27.8432C27.751 27.8432 27.8837 27.7105 27.8837 27.5512C27.8837 27.4185 27.751 27.3654 27.5917 27.4716C27.4325 27.5512 27.0344 27.5247 26.7424 27.3654C26.4239 27.2327 25.7604 26.9673 25.2826 26.7815C24.8314 26.5957 24.4333 26.3038 24.4333 26.118C24.4333 25.9322 24.0086 25.6137 23.5044 25.4013L22.5489 25.0298L23.0797 24.3397C23.5574 23.7292 23.584 23.6231 23.2124 23.4904C22.9204 23.3842 22.8143 23.4373 22.9204 23.6496C23.1593 24.2866 21.5137 23.9681 20.4521 23.1719C19.8682 22.7472 19.3904 22.296 19.3904 22.1898C19.3904 21.8979 20.5317 22.2695 20.7971 22.641C20.9564 22.8268 20.9829 22.7737 20.9033 22.4818C20.8237 22.2429 20.8768 22.004 21.0625 21.9244C21.2218 21.8713 20.9033 21.8182 20.3459 21.7917C19.7886 21.7652 19.125 21.6059 18.8861 21.4201C18.5146 21.1016 18.488 21.1282 18.8331 21.5263C19.0188 21.7917 19.0985 22.004 18.9658 22.004C18.8596 22.004 18.8861 22.1367 19.0719 22.3225C19.5231 22.7737 19.4701 23.0657 18.9658 23.0657C18.7534 23.0657 18.6473 22.9595 18.7269 22.8003C18.8331 22.6145 18.6738 22.6145 18.2226 22.8003C17.8245 22.933 17.4794 22.933 17.3998 22.8003C17.3202 22.6941 17.4794 22.5083 17.7183 22.4552C17.9837 22.3756 17.7714 22.3225 17.2406 22.296C16.0993 22.2695 15.5154 21.7386 16.0197 21.2078C16.2585 20.9424 16.2585 20.9158 15.9931 21.0485C15.8339 21.1547 15.5419 21.1547 15.3827 21.0485C15.1969 20.9424 15.3561 20.7566 15.8339 20.5443L16.6036 20.2258H15.7277C15.2765 20.2258 14.8784 20.3585 14.8784 20.5177C14.8784 20.7035 14.7988 20.7035 14.666 20.4912C14.4006 20.0665 13.0205 19.748 13.0205 20.1196C13.0205 20.2788 13.2859 20.4115 13.6044 20.4115C14.1883 20.4381 15.4092 21.2343 15.4092 21.6059C15.4092 21.7121 15.2234 21.659 15.0111 21.4732C14.7988 21.2874 14.613 21.2343 14.613 21.3671C14.613 21.4998 14.4272 21.3671 14.2148 21.1016C14.0025 20.8097 13.8167 20.73 13.8167 20.8893C13.8167 21.0751 13.6575 21.1813 13.4717 21.1282C13.3124 21.1016 13.1797 21.2343 13.2328 21.4201C13.2859 21.6855 13.1797 21.6855 12.7816 21.4732C12.065 21.1016 11.9588 21.1282 11.9588 21.659C11.9588 22.004 11.8792 22.0306 11.6403 21.7917C11.1891 21.3405 10.8972 21.3936 10.8972 21.8979C10.8972 22.1102 10.7645 22.2164 10.6318 22.1367C10.4725 22.0306 10.4194 21.8713 10.4725 21.7652C10.5521 21.659 10.1275 21.5528 9.54355 21.5263C8.48189 21.4467 8.16339 21.8182 8.95964 22.1898C9.46392 22.4287 10.4194 22.4022 12.702 22.1367C14.0556 21.9775 14.0821 22.004 13.7636 22.5083C13.5779 22.8268 13.3124 23.0922 13.1532 23.1188C13.0205 23.1188 12.7551 23.1719 12.6224 23.1719C12.4631 23.1984 12.2242 23.278 12.0915 23.3842C11.72 23.6231 10.3398 23.3311 10.5256 23.0392C10.6052 22.9065 10.4194 22.8003 10.1009 22.8003C9.78242 22.8003 9.59663 22.9065 9.67626 23.0392C9.75588 23.1719 9.59663 23.3311 9.30468 23.4107C9.01272 23.4904 8.77385 23.4107 8.77385 23.2515C8.77385 23.0657 8.64114 23.1453 8.48189 23.3842C8.16339 23.9681 7.36715 23.9946 6.80978 23.4373C6.57091 23.2249 6.38512 23.1453 6.38512 23.278C6.38512 23.6761 6.96903 24.0477 8.16339 24.4193C8.80039 24.5786 9.30468 24.844 9.30468 24.9501C9.30468 25.0829 9.09235 25.1094 8.82693 25.0032C8.34919 24.8174 8.37572 24.8705 9.14543 25.4544C9.49047 25.7198 9.59663 25.7198 9.46393 25.5075C9.35776 25.3217 9.41085 25.189 9.59663 25.189C9.80897 25.189 9.80896 25.0828 9.57009 24.7909C9.3843 24.5786 9.0658 24.3928 8.88001 24.3928C8.2961 24.3928 8.45535 23.9416 9.09235 23.7558C9.99475 23.5169 10.4194 23.57 10.2336 23.8619C10.1009 24.1008 10.4194 24.2335 10.9502 24.1539C11.2687 24.1274 11.0033 24.9501 10.6052 25.2156C10.3398 25.4014 10.5256 25.4279 11.1626 25.3217C11.6669 25.2156 12.1977 25.0032 12.3569 24.844C12.5427 24.6582 12.5162 24.6582 12.2508 24.7909C11.7465 25.0828 11.4015 24.3928 11.8527 23.9416C12.065 23.7292 12.3304 23.6231 12.4631 23.7292C12.5958 23.8089 12.7816 23.7558 12.8878 23.5965C12.9674 23.4638 13.2859 23.3311 13.5779 23.3311C13.8698 23.3311 14.4006 23.1453 14.7457 22.9065C15.4358 22.4552 15.5154 22.5614 15.4888 23.8089C15.4623 23.9946 15.6215 24.1008 15.8339 24.0743C16.0197 24.0212 16.3647 24.2335 16.6036 24.5255C16.8424 24.8174 16.9486 24.8971 16.8424 24.6847C16.7097 24.4193 16.9221 24.4724 17.5325 24.8174C18.0103 25.0829 18.4349 25.481 18.5146 25.6402C18.5942 25.826 18.8596 25.9853 19.0985 25.9853C19.4435 25.9853 19.4701 26.0383 19.1516 26.2241C18.9392 26.3834 18.5146 26.3834 18.143 26.2241C17.6122 26.0383 17.5591 26.0649 17.8245 26.463C18.0368 26.7815 18.4349 26.9142 19.2577 26.8877C19.8947 26.8611 20.5317 26.9407 20.691 27.0469C21.1422 27.3123 20.107 28.374 19.3639 28.374C18.7534 28.4005 17.4264 29.1437 17.9572 29.1968C18.0899 29.1968 18.488 29.2499 18.8596 29.2764C19.2312 29.3295 19.8682 29.0906 20.3459 28.7456C20.7971 28.4005 21.328 28.1086 21.5403 28.1351C21.7526 28.1351 21.6465 28.2413 21.3014 28.4005C20.9564 28.5332 20.7706 28.7456 20.8502 28.9048C20.9564 29.0641 21.1422 29.1171 21.2749 29.0375C21.4076 28.9314 21.5137 29.011 21.5137 29.1702C21.5137 29.3295 21.6465 29.3826 21.8322 29.2764C22.0446 29.1437 22.0711 29.2233 21.965 29.5418C21.8588 29.7807 21.8853 29.9134 22.018 29.8338C22.1507 29.7541 22.3631 29.8338 22.4427 29.993C22.5489 30.1523 22.3896 30.3381 22.0711 30.4177C21.7526 30.4973 21.5137 30.6831 21.5137 30.8158C21.5137 30.975 21.8057 30.8954 22.1507 30.6566C22.5489 30.3911 22.8674 30.3381 22.9735 30.4973C23.0532 30.6565 23.5574 30.7627 24.0617 30.7627C24.566 30.7627 24.9376 30.6566 24.858 30.5504C24.7783 30.4442 25.2561 30.5769 25.9196 30.8689C27.2467 31.5059 27.3529 31.6917 26.5035 31.904L25.8931 32.0633L26.477 32.6206C27.2202 33.2842 27.459 33.3107 27.0875 32.6206C26.8486 32.196 26.8751 32.0898 27.2202 32.0898C27.4325 32.0898 27.6183 32.196 27.6183 32.3552C27.6183 32.4879 27.8041 32.6206 28.0164 32.6206C28.4676 32.6206 28.5472 33.0453 28.1757 33.2576C28.0429 33.3638 27.8837 33.2576 27.8041 33.0984C27.7244 32.9126 27.6714 32.9922 27.6979 33.2842C27.7244 33.7354 27.9368 33.815 29.0515 33.8681C29.7681 33.8946 30.4317 34.0008 30.5113 34.1335C30.5909 34.2396 30.8298 34.3458 30.989 34.3724C31.1748 34.3989 31.5199 34.4254 31.7322 34.4254C32.3161 34.5051 32.21 35.4605 31.5995 35.6198C31.3075 35.6994 31.0687 35.6463 31.0687 35.5136C31.0687 35.3809 30.936 35.2748 30.7767 35.2748C30.2459 35.2748 30.7236 35.9383 31.2545 35.9648C31.573 35.9914 31.9976 36.071 32.2365 36.1506C32.4754 36.2568 32.6612 36.2303 32.6612 36.1241C32.6612 35.8056 34.8906 35.9648 34.9968 36.3099C35.0499 36.4691 34.9172 36.6018 34.7048 36.6018C34.4394 36.6018 34.3598 36.7876 34.4394 37.1592C34.5456 37.5839 34.6518 37.6104 34.811 37.345C34.9437 37.1592 35.0499 37.1061 35.0499 37.2654C35.0499 37.3981 35.1826 37.3715 35.3418 37.2123C35.5011 37.053 35.8196 36.9469 36.0054 37.0265C37.2794 37.3981 37.2528 37.3715 36.8812 37.8758C36.5893 38.2474 36.5893 38.2739 36.9078 37.982C37.1201 37.8227 37.4386 37.6635 37.6244 37.6635C38.1287 37.6635 37.7306 38.4597 37.1997 38.4863C36.8547 38.4863 36.8547 38.5394 37.1732 38.6455C37.3855 38.7252 37.6509 38.9375 37.7571 39.0702C37.9694 39.4152 38.8188 39.5745 38.6064 39.2294C38.5268 39.0967 38.5799 38.9906 38.7126 38.9906C39.1107 38.9906 39.2965 39.3356 39.0311 39.6276C38.8984 39.8134 38.8984 40.0788 39.0842 40.3176C39.2965 40.6361 39.3231 40.6361 39.1904 40.238C39.1107 39.9991 39.0842 39.7868 39.1373 39.7868C39.2169 39.7868 39.4558 39.7072 39.6681 39.6276C39.9866 39.4949 40.0662 39.5745 39.9335 39.893C39.8539 40.1319 39.8804 40.3176 39.9866 40.3442C41.1279 40.4504 41.4464 40.53 41.6056 40.7158C41.7383 40.8219 41.5525 40.8485 41.234 40.7688C40.4113 40.5831 40.2255 40.9546 40.9686 41.3262C41.9772 41.804 42.4815 41.9101 42.4815 41.6447C42.4815 41.4855 42.3488 41.3793 42.2161 41.3793C42.0568 41.3793 41.9507 41.2731 41.9507 41.1139C41.9507 40.9812 42.1365 40.9281 42.3488 41.0077C42.5611 41.0873 42.7204 41.4589 42.6938 41.804C42.6407 42.3083 42.508 42.4144 42.1099 42.2817C41.6852 42.149 41.6587 42.1755 41.9507 42.4675C42.163 42.7329 42.7469 42.8125 43.7024 42.7595C44.6313 42.6798 45.1356 42.7595 45.1356 42.9452C45.1356 43.1045 45.348 43.2372 45.5868 43.2372C45.985 43.2372 46.0115 43.2903 45.6665 43.5026C45.4541 43.6353 44.9498 43.768 44.5517 43.768C44.1536 43.768 43.7555 43.9007 43.6759 44.06C43.5697 44.2192 43.3043 44.2723 43.0919 44.1927C42.8796 44.1131 42.7734 44.1396 42.8531 44.2723C42.9327 44.405 43.2512 44.5643 43.5431 44.6439C43.8351 44.7235 44.0209 44.6704 43.9147 44.5377C43.8351 44.405 43.8882 44.2989 44.0474 44.2989C44.1801 44.2989 44.3659 44.6439 44.4721 45.0951C44.6313 45.7852 44.6844 45.8383 45.0295 45.4932C45.5338 45.0155 46.038 44.9624 45.7992 45.4136C45.7195 45.5994 45.8523 45.4932 46.0911 45.1482C46.5423 44.5377 47.6305 44.3519 47.9225 44.8297C48.0287 44.9889 48.0021 45.0951 47.8694 45.0686C47.2059 44.9624 46.7812 45.1482 46.6485 45.6259C46.5423 46.1037 46.4096 46.1302 45.7726 45.8913C45.1091 45.6259 45.0826 45.6525 45.4276 46.0771C45.7461 46.4753 45.7461 46.5018 45.348 46.3425C45.0826 46.2629 44.8171 46.316 44.711 46.4753C44.5783 46.661 44.7641 46.7141 45.2683 46.608C45.7195 46.5283 46.2769 46.6345 46.622 46.8734C47.0201 47.1388 47.259 47.1653 47.3917 46.953C47.4713 46.7938 47.4713 46.6876 47.3386 46.7141C46.6485 46.8203 46.4627 46.6876 46.7547 46.2098C46.967 45.8648 47.312 45.7852 48.0817 45.8383C48.6656 45.8913 49.1699 46.0506 49.2496 46.1568C49.3292 46.2895 49.1169 46.316 48.7984 46.2364C48.3737 46.1568 48.2941 46.1833 48.5329 46.3691C48.7187 46.5018 48.9045 46.8468 48.9311 47.1388C48.9311 47.4307 49.1169 47.6696 49.3026 47.6696C49.4619 47.6696 49.5415 47.5369 49.4619 47.4042C49.3557 47.245 49.4619 47.1919 49.7273 47.298C49.9927 47.4042 50.1785 47.3511 50.1785 47.1653C50.1785 47.0061 50.3378 47.0326 50.6297 47.245C50.9217 47.5104 51.0013 47.5104 50.8686 47.2715C50.7624 47.0857 50.8155 46.953 50.9748 46.953C51.134 46.953 51.1871 46.7938 51.0809 46.608C50.9217 46.3425 50.9748 46.3425 51.2667 46.608C51.4525 46.7938 51.9568 46.953 52.3815 46.953C53.0715 46.953 53.1246 47.0061 52.8061 47.4042C52.4611 47.8023 52.4876 47.8023 53.0184 47.5369C53.7616 47.1388 53.9739 47.1388 53.7616 47.5369C53.6554 47.7227 53.7616 47.6431 54.0005 47.3511C54.2128 47.0592 54.5313 46.661 54.6906 46.4753C54.9029 46.2364 54.8763 46.1568 54.5844 46.1568C54.3721 46.1568 54.0005 45.8913 53.7881 45.5728C53.39 45.0155 53.4166 44.9624 53.9739 44.6439C54.3721 44.405 54.4251 44.3254 54.1332 44.2989C53.8943 44.2989 53.5227 44.0865 53.2839 43.8211C52.753 43.2372 52.8061 42.2021 53.3635 42.2286C54.027 42.2552 55.2745 41.6712 55.0887 41.3793C54.9029 41.0873 54.1597 41.3262 54.1597 41.6713C54.1597 41.804 53.7881 41.8836 53.3635 41.857C52.9123 41.8305 52.5672 41.6447 52.5672 41.4589C52.5672 41.2731 52.4611 41.1139 52.3284 41.1139C51.9302 41.1139 51.7179 39.256 52.063 38.8313C52.3018 38.5128 52.3018 38.4863 52.0099 38.5924C51.5056 38.7782 50.9748 37.6104 51.2933 37.0265C51.479 36.708 51.426 36.6549 51.134 36.7611C50.842 36.8673 50.6828 36.6815 50.5501 36.1506C50.4439 35.7525 49.9662 34.4785 49.4884 33.3372C48.9841 32.196 48.5595 30.922 48.5329 30.4708C48.5064 30.0461 48.4002 29.7011 48.3206 29.7011C48.1083 29.7011 46.3831 26.118 46.2504 25.3748C46.2238 25.2686 46.038 24.9767 45.7992 24.7644C45.5868 24.5255 45.4011 24.1804 45.4011 23.9681C45.4011 23.7558 45.2153 23.2249 45.0029 22.8003C44.6844 22.1898 44.6579 22.004 44.9233 21.9775C45.1622 21.9775 45.1356 21.8979 44.8702 21.8182C44.1536 21.5263 42.7734 19.6153 43.2777 19.6153C43.4635 19.6153 43.3839 19.4295 43.1716 19.1906C42.9327 18.9783 42.8 18.6598 42.8796 18.5271C42.9858 18.3944 42.8531 18.3679 42.6407 18.4475C42.2692 18.5802 41.7914 17.7043 41.8976 17.0673C41.9241 16.9081 41.7649 16.6161 41.5525 16.4303C41.3402 16.2445 41.1544 15.9791 41.1544 15.8199C41.1544 15.6606 41.234 15.6341 41.3137 15.7137C41.5525 15.926 42.4815 15.4218 42.4815 15.1033C42.4815 14.944 42.3488 14.8378 42.1895 14.8378C42.0568 14.8378 42.0037 14.944 42.0834 15.1033C42.1895 15.2625 41.9507 15.3687 41.5791 15.3687C41.1013 15.3687 40.889 15.236 40.889 14.8909C40.889 14.599 40.8094 14.5459 40.6767 14.7582C40.5705 14.944 40.2786 14.6521 39.9601 13.962C39.4292 12.8472 39.0046 12.2368 38.1552 11.3344C37.7306 10.8832 37.7571 10.8566 39.2434 10.8566C40.4643 10.8566 40.9155 10.7505 41.2871 10.3258C41.5525 10.0338 41.6322 9.79497 41.4729 9.79497C41.2871 9.79497 41.1544 9.90113 41.1544 10.0073ZM11.9588 11.2282C11.9588 11.6794 12.0119 11.706 12.2242 11.3875C12.3569 11.1751 12.4897 11.1221 12.4897 11.2813C12.4897 11.4405 12.6754 11.5732 12.8878 11.5732C13.3655 11.5732 13.3921 11.4671 12.9674 11.0159C12.4897 10.5116 11.9588 10.6178 11.9588 11.2282ZM9.03926 10.7239C9.03926 10.8035 9.30468 11.1486 9.62317 11.5202C10.2602 12.2633 10.9502 12.3695 11.428 11.7856C11.72 11.4405 11.6403 11.414 10.9502 11.5467C10.3133 11.6794 10.0744 11.5998 9.78242 11.1486C9.46393 10.6443 9.03926 10.4054 9.03926 10.7239ZM6.65053 11.2282C6.65053 11.2813 6.83632 11.414 7.0752 11.4936C7.28753 11.5733 7.39369 11.5467 7.31407 11.3875C7.15482 11.122 6.65053 11.0159 6.65053 11.2282ZM2.7224 11.6263C2.77548 11.8652 3.09398 12.0775 3.41248 12.1306C3.94331 12.2102 3.99639 12.1572 3.70443 11.706C3.33285 11.0955 2.61623 11.0424 2.7224 11.6263ZM39.0576 11.6263C38.8719 11.759 38.8188 11.9183 38.9249 11.9979C39.1904 12.1306 40.3582 11.759 40.3582 11.5202C40.3582 11.3078 39.4558 11.3609 39.0576 11.6263ZM17.0017 11.6529C17.506 11.9979 17.7979 11.9979 17.7979 11.6529C17.7979 11.4936 17.5325 11.3875 17.1875 11.3875C16.7097 11.3875 16.6832 11.4405 17.0017 11.6529ZM15.2234 11.7856C15.1438 12.0245 14.8784 12.1837 14.6395 12.1572C14.4006 12.1306 13.9229 12.2368 13.5513 12.396C12.9674 12.6349 13.0205 12.6614 14.0821 12.6349C14.8253 12.6084 15.25 12.688 15.2234 12.8738C15.1969 13.033 15.3561 13.1657 15.5685 13.1657C15.8073 13.1657 15.8604 13.0596 15.7012 12.9003C15.5419 12.7411 15.5419 12.396 15.6746 12.0245C15.8339 11.5998 15.8339 11.3875 15.6481 11.3875C15.5154 11.3875 15.3296 11.5732 15.2234 11.7856ZM12.2508 12.7941C12.0384 13.0596 12.065 13.1657 12.3569 13.1657C12.5693 13.1657 12.7551 13.0065 12.7551 12.7941C12.7551 12.6084 12.702 12.4491 12.6489 12.4491C12.5958 12.4491 12.41 12.6084 12.2508 12.7941ZM21.8588 13.5904C21.4607 13.4311 21.4341 13.4577 21.7792 13.8293C22.1773 14.2274 22.8674 14.307 22.8408 13.962V13.2984C22.8231 13.0153 22.7258 13.0153 22.5489 13.2984C22.3896 13.5904 22.1242 13.6966 21.8588 13.5904ZM13.1797 13.2188C13.1001 13.325 13.339 13.3781 13.684 13.2984C14.0556 13.2454 14.3476 13.1392 14.3476 13.0861C14.3476 12.8738 13.3124 12.9799 13.1797 13.2188ZM9.30468 13.5108C10.0478 13.7231 10.2336 13.67 9.99476 13.2984C9.91513 13.1392 9.57009 13.1126 9.22505 13.1923C8.83578 13.2984 8.86232 13.4046 9.30468 13.5108ZM1.9527 13.3781C1.9527 13.67 2.05886 13.6966 2.32428 13.4842C2.51007 13.325 2.66932 13.1392 2.66932 13.0861C2.66932 13.033 2.51007 12.9799 2.32428 12.9799C2.11194 12.9799 1.9527 13.1657 1.9527 13.3781ZM0.811413 13.5639C0.811413 13.9885 0.891041 14.0681 1.10337 13.8558C1.26262 13.6966 1.3157 13.4312 1.23608 13.2719C0.944122 12.8207 0.811413 12.9269 0.811413 13.5639ZM23.6371 14.599C23.6371 14.7051 23.8229 14.7582 24.0352 14.6786C24.2475 14.5724 24.4333 14.4132 24.4333 14.2805C24.4333 14.1743 24.2475 14.1212 24.0352 14.2009C23.8229 14.307 23.6371 14.4663 23.6371 14.599ZM20.9829 14.8644C20.9829 14.9971 21.2749 15.1033 21.6465 15.1033C22.3365 15.1033 22.5489 14.7051 21.965 14.4928C21.5403 14.3601 20.9829 14.5724 20.9829 14.8644ZM17.214 14.4928C17.3733 14.5459 17.4794 14.7317 17.3733 14.8644C17.2406 15.1033 17.3998 15.1563 18.4615 15.2094C18.7534 15.236 19.1516 15.3421 19.3639 15.4748C19.6028 15.6341 19.6824 15.6076 19.6028 15.3421C19.5231 15.1298 19.0188 14.8378 18.4349 14.6521C17.3998 14.3601 16.577 14.2274 17.214 14.4928ZM13.0205 15.0236C13.0205 15.236 12.9143 15.3421 12.7816 15.2625C12.6754 15.1829 12.5693 15.3421 12.5958 15.6341C12.5958 15.926 12.702 16.1384 12.7816 16.1118C12.8612 16.0587 13.1266 16.1915 13.3655 16.4038C13.7371 16.6958 13.8963 16.6957 14.2148 16.4303C14.4272 16.2445 14.5599 16.0057 14.4803 15.8995C14.4006 15.7668 14.5864 15.7403 14.8784 15.8199C15.595 16.0057 15.5419 16.4303 14.7988 16.4303C14.321 16.4303 14.2945 16.4834 14.613 16.6957C14.9315 16.9081 14.9315 16.9612 14.4803 16.9877C14.1883 16.9877 14.1087 17.0673 14.2945 17.147C14.4537 17.2 14.5333 17.4124 14.4272 17.5716C14.3476 17.7574 14.5068 17.6778 14.8253 17.4124C15.1173 17.1204 15.5154 16.9877 15.6481 17.0939C15.8073 17.1735 15.94 17.1735 15.94 17.0408C15.94 16.9346 16.3116 16.6161 16.7628 16.3772C17.7979 15.7668 17.5325 15.3687 16.2851 15.5545C15.6215 15.6606 15.3827 15.6341 15.5154 15.4218C15.6215 15.2625 15.887 15.1829 16.1524 15.2625C16.4178 15.351 16.4089 15.2979 16.1258 15.1033C15.887 14.944 15.5685 14.8644 15.4358 14.944C15.3296 15.0236 15.0111 14.9175 14.7457 14.7317C14.1618 14.307 13.0205 14.4928 13.0205 15.0236ZM11.428 14.4132C11.428 14.4928 11.5342 14.6255 11.6934 14.7051C11.8261 14.7848 11.9588 14.7317 11.9588 14.599C11.9588 14.4397 11.8261 14.307 11.6934 14.307C11.5342 14.307 11.428 14.3601 11.428 14.4132ZM9.43739 14.599C9.33122 14.7317 9.41084 14.8378 9.54355 14.8378C9.7028 14.8378 9.83551 14.944 9.83551 15.1033C9.83551 15.236 9.57009 15.3687 9.25159 15.3687C8.50843 15.3687 8.72076 15.5545 9.62317 15.7403C10.154 15.8199 10.2867 15.7668 10.1805 15.4748C10.0744 15.1563 10.1805 15.1298 10.7379 15.3687C11.1095 15.5014 11.428 15.5545 11.428 15.4748C11.428 15.3687 11.6138 15.4483 11.8261 15.6341C12.1446 15.8995 12.2242 15.8995 12.2242 15.581C12.2242 14.9175 9.75588 14.0416 9.43739 14.599ZM4.12909 15.3687C4.20872 15.5014 4.44759 15.6341 4.60684 15.6341C4.79263 15.6341 4.76609 15.5279 4.52722 15.3687C4.02293 15.0502 3.91676 15.0502 4.12909 15.3687ZM20.1867 15.4748C20.1867 15.7137 21.6199 16.4834 22.2569 16.5896C22.8939 16.6692 22.8674 16.6161 22.0446 16.218C21.5403 15.9791 21.0625 15.6872 21.036 15.5545C20.9298 15.3687 20.1867 15.2891 20.1867 15.4748ZM17.5325 16.2976C17.4264 16.2445 17.1344 16.4038 16.869 16.6957C16.3912 17.2 16.4178 17.2266 16.9486 17.2266C17.8245 17.2266 17.9306 17.2 17.8776 16.9612C17.7979 16.6957 19.1781 16.9612 19.6028 17.3062C19.8947 17.5185 19.8947 17.6247 19.6028 17.784C19.3639 17.9432 19.4435 18.0228 19.8682 18.0228C20.2398 18.0228 20.4255 18.129 20.3194 18.3148C20.2132 18.474 20.0009 18.5271 19.8151 18.474C19.6558 18.3944 19.3639 18.5271 19.1781 18.7129C18.9127 19.0049 18.9658 19.0579 19.5231 19.0314C19.8947 19.0048 20.1867 18.8721 20.1867 18.766C20.1867 18.6598 20.3194 18.5536 20.4786 18.5536C20.6379 18.5536 20.7175 18.7129 20.6379 18.9252C20.5317 19.1906 20.7706 19.2968 21.5934 19.2703C22.2038 19.2703 22.4958 19.2172 22.2304 19.1641C21.7792 19.0579 21.7792 18.9783 22.1507 18.3944C22.5223 17.8636 22.5223 17.784 22.1773 17.9167C21.965 18.0228 21.7792 18.1821 21.7792 18.3148C21.7792 18.6598 21.036 18.6067 20.8237 18.2617C20.744 18.1024 20.8237 17.8636 21.0095 17.7309C21.2749 17.5716 21.1687 17.492 20.6644 17.492C20.2663 17.492 19.8682 17.3593 19.7886 17.2C19.4966 16.7754 19.8682 16.5896 20.2928 16.9346C20.5052 17.1204 20.9033 17.2266 21.1687 17.147C21.5403 17.0408 21.5403 17.0143 21.0625 16.9877C20.744 16.9877 20.3459 16.7488 20.2132 16.4834C19.9743 16.0853 19.8947 16.0853 19.6558 16.4303C19.4435 16.7754 19.3639 16.7754 19.1516 16.4569C19.0188 16.2711 18.8065 16.1649 18.6473 16.2711C18.488 16.3507 18.2757 16.2976 18.1695 16.1118C18.0103 15.873 17.9306 15.873 17.851 16.1118C17.7979 16.2976 17.6652 16.3772 17.5325 16.2976ZM5.19075 16.3772C5.27038 16.4569 5.48271 16.3773 5.6685 16.1915C5.90737 15.9261 5.88083 15.8995 5.50925 16.0588C5.24384 16.1384 5.11113 16.2976 5.19075 16.3772ZM6.01354 16.3772C5.93391 16.51 6.04008 16.6161 6.25241 16.6161C6.46474 16.6161 6.65053 16.51 6.65053 16.3772C6.65053 16.2711 6.54437 16.1649 6.41166 16.1649C6.25241 16.1649 6.09316 16.2711 6.01354 16.3772ZM36.377 16.6957C36.377 16.8285 36.5627 16.9612 36.7751 16.9612C36.9874 16.9612 37.1732 16.8285 37.1732 16.6957C37.1732 16.5365 36.9874 16.4303 36.7751 16.4303C36.5627 16.4303 36.377 16.5365 36.377 16.6957ZM11.3218 16.7488C11.4015 16.855 11.2687 16.9612 11.0564 16.9612C10.8175 16.9612 10.6848 17.1735 10.7114 17.5185C10.7379 17.9963 10.7645 18.0228 11.083 17.5982C11.2687 17.3593 11.5872 17.2266 11.8261 17.3062C12.0384 17.4124 12.2242 17.3593 12.2242 17.2C12.2242 17.0408 12.3304 17.0142 12.4897 17.0939C12.6489 17.1735 12.6754 17.0673 12.5958 16.855C12.5162 16.6161 12.1712 16.4569 11.8261 16.4834C11.4811 16.51 11.2687 16.6427 11.3218 16.7488ZM2.93473 16.5365C2.93473 16.6161 3.04089 16.7488 3.20015 16.8285C3.33285 16.9081 3.46556 16.855 3.46556 16.7223C3.46556 16.563 3.33285 16.4303 3.20015 16.4303C3.04089 16.4303 2.93473 16.4834 2.93473 16.5365ZM28.8923 17.2797C29.0781 17.4655 29.2108 17.492 29.2108 17.3327C29.2108 16.9612 28.8923 16.6427 28.7065 16.8285C28.6534 16.9081 28.733 17.1204 28.8923 17.2797ZM13.1001 17.2266C13.1266 17.5185 13.2328 17.7574 13.339 17.7574C13.6309 17.7574 13.8698 17.2531 13.684 16.9612C13.3921 16.51 13.047 16.6692 13.1001 17.2266ZM43.4104 17.2C43.3308 17.3327 43.3839 17.5185 43.5431 17.6247C43.6759 17.7043 43.8086 17.5982 43.8086 17.3858C43.8086 16.9081 43.6493 16.8285 43.4104 17.2ZM42.0834 17.2266C42.0037 17.3593 42.0568 17.492 42.1895 17.492C42.3488 17.492 42.4815 17.3593 42.4815 17.2266C42.4815 17.0673 42.4284 16.9612 42.3753 16.9612C42.2957 16.9612 42.163 17.0673 42.0834 17.2266ZM37.5182 17.1204C37.5979 17.2 37.8367 17.2266 38.0225 17.147C38.2349 17.0673 38.1552 16.9877 37.8633 16.9877C37.5713 16.9612 37.4121 17.0408 37.5182 17.1204ZM23.5044 17.4655C23.7167 17.8105 24.4333 17.8636 24.4333 17.5185C24.4333 17.3858 24.221 17.2266 23.9556 17.1735C23.3982 17.0408 23.2655 17.1204 23.5044 17.4655ZM26.6893 17.9963C26.3708 18.1821 26.2116 18.2086 25.3623 18.2617C24.9907 18.2617 24.6987 18.4209 24.6987 18.5802C24.6987 18.7394 24.9111 18.8191 25.1499 18.766C25.4153 18.7129 25.84 18.9252 26.1054 19.2172C26.4505 19.5888 26.5566 19.6153 26.477 19.3499C26.3177 18.8721 27.2467 18.6864 27.5121 19.1376C27.6183 19.2968 27.7775 19.2703 27.9368 19.0579C28.0695 18.8456 28.2287 18.7925 28.3084 18.9518C28.4411 19.2703 30.2724 19.2703 30.7767 18.9518C31.3341 18.6333 30.0336 18.0228 29.3435 18.2882C28.733 18.5271 27.459 17.9963 27.8041 17.6512C27.9899 17.4655 27.1936 17.7043 26.6893 17.9963ZM17.0813 18.129C17.0548 18.1555 17.4264 18.3944 17.8776 18.6598C18.3553 18.9252 18.6473 19.0314 18.5146 18.9252C18.4084 18.8191 18.5146 18.5271 18.7534 18.2617C19.1516 17.8105 19.125 17.7839 18.1695 17.9432C17.5856 18.0228 17.1079 18.1024 17.0813 18.129ZM22.8408 18.4209C22.8408 18.6333 22.9204 18.8191 23.0266 18.8191C23.1593 18.8191 23.5044 18.8987 23.8228 18.9783C24.221 19.0845 24.4333 19.0314 24.4333 18.8191C24.4333 18.6333 24.2475 18.5537 24.0352 18.6598C23.7963 18.7394 23.5574 18.6333 23.4778 18.4209C23.2655 17.9167 22.8408 17.9167 22.8408 18.4209ZM12.4897 18.2882C12.2773 18.4209 12.1977 18.5536 12.3569 18.5536C12.4897 18.5536 12.8081 18.4209 13.0205 18.2882C13.2328 18.1555 13.2859 18.0228 13.1532 18.0228C12.9939 18.0228 12.702 18.1555 12.4897 18.2882ZM36.2177 18.7394C36.2973 18.8191 36.8282 18.8987 37.3855 18.9252C38.1287 18.9783 38.341 18.8987 38.1552 18.6864C37.996 18.5271 37.4917 18.4475 36.9874 18.5006C36.4831 18.5802 36.1381 18.6864 36.2177 18.7394ZM44.8702 19.0845C45.0826 19.2172 45.3745 19.3499 45.5338 19.3499C45.6665 19.3499 45.6134 19.2172 45.4011 19.0845C45.1887 18.9518 44.8702 18.8191 44.7375 18.8191C44.5783 18.8191 44.6579 18.9518 44.8702 19.0845ZM30.8033 20.093C30.8033 20.1461 30.8829 20.1196 30.989 20.0665C31.1218 20.0134 31.4137 19.8807 31.6791 19.8011C31.9445 19.6949 32.1038 19.5091 31.9976 19.3499C31.8649 19.1376 30.8033 19.8011 30.8033 20.093ZM22.9735 19.6153C22.8939 19.7746 23.0001 19.8011 23.2124 19.7215C23.6901 19.5357 23.7698 19.3499 23.3982 19.3499C23.2389 19.3499 23.0532 19.4561 22.9735 19.6153ZM47.7898 20.3319L47.1262 20.6504H47.9756C48.4268 20.677 48.9045 20.5443 48.9841 20.4115C49.1965 20.0665 48.8514 19.4826 48.6126 19.8011C48.5329 19.9338 48.1614 20.1727 47.7898 20.3319ZM28.3084 20.04C28.1757 20.385 28.2553 20.4381 28.6799 20.3319C28.9719 20.2523 29.1577 20.3319 29.1311 20.4912C29.1046 20.6504 29.3435 20.8362 29.662 20.8893C30.007 20.9424 30.2724 20.8628 30.2724 20.7035C30.2724 20.5443 30.4848 20.4912 30.7236 20.5708C31.1218 20.7035 31.1483 20.677 30.8033 20.4381C30.5909 20.2789 30.1928 20.2258 29.9008 20.3054C29.5558 20.4116 29.4762 20.385 29.6089 20.1461C29.7416 19.9338 29.7151 19.8542 29.5823 19.9603C29.4231 20.04 29.1577 20.0134 28.9454 19.8542C28.4411 19.5622 28.4942 19.5357 28.3084 20.04ZM7.55294 20.1992C7.44677 20.3585 7.5264 20.5708 7.71219 20.677C7.89798 20.7831 7.95107 21.022 7.87144 21.1813C7.76527 21.3405 7.57948 21.4201 7.44678 21.3405C7.31407 21.2609 7.15482 21.314 7.0752 21.4467C6.99557 21.5794 6.57091 21.659 6.11971 21.6325C5.69504 21.6059 5.29692 21.7121 5.2173 21.8979C5.05805 22.3225 6.62399 22.5349 6.99557 22.1367C7.15482 21.951 7.49986 21.8713 7.76527 21.9509C8.13685 22.0306 8.24302 21.8979 8.24302 21.2609C8.24302 20.8097 8.08377 20.385 7.89798 20.3319C7.73873 20.2523 7.8449 20.1727 8.16339 20.1727C8.48189 20.1461 8.80039 20.04 8.88001 19.9073C8.95964 19.8011 8.72076 19.748 8.37573 19.8276C8.00415 19.8807 7.63256 20.0665 7.55294 20.1992ZM46.3565 20.3054C46.2238 20.677 46.2504 20.7035 46.5954 20.4115C47.0466 20.04 47.0997 19.8807 46.7547 19.8807C46.622 19.8807 46.4362 20.0665 46.3565 20.3054ZM21.5137 20.1196C21.5137 20.3585 22.6019 20.73 22.8143 20.5443C22.8939 20.4381 22.0711 20.0134 21.5668 19.9073C21.5403 19.8807 21.5137 19.9869 21.5137 20.1196ZM4.79263 20.4381C4.79263 20.5973 4.8988 20.6239 5.05804 20.5443C5.19075 20.4646 5.32346 20.2523 5.32346 20.1196C5.32346 19.9604 5.19075 19.9338 5.05804 20.0134C4.8988 20.0931 4.79263 20.3054 4.79263 20.4381ZM24.8314 20.8362C24.5395 21.2874 24.5129 21.4997 24.7253 21.4201C24.8845 21.367 25.1499 21.0485 25.2561 20.73C25.548 19.9603 25.3888 19.9869 24.8314 20.8362ZM23.7698 20.4115C23.8494 20.5443 24.1148 20.677 24.3271 20.677C24.5395 20.677 24.6987 20.5443 24.6987 20.4115C24.6987 20.2523 24.4598 20.1461 24.1413 20.1461C23.8494 20.1461 23.6901 20.2523 23.7698 20.4115ZM6.11971 20.2523C6.11971 20.3054 6.3055 20.4381 6.54437 20.5177C6.7567 20.5973 6.86287 20.5708 6.78324 20.4115C6.62399 20.1461 6.11971 20.04 6.11971 20.2523ZM37.1732 21.5263C37.1732 21.6325 37.3325 21.7386 37.4917 21.7386C37.6775 21.7386 37.8367 21.4467 37.8367 21.0751C37.8367 20.4646 37.8102 20.4381 37.4917 20.8628C37.3325 21.1016 37.1732 21.3936 37.1732 21.5263ZM48.3206 21.3671C48.3206 21.5794 48.4268 21.7386 48.5595 21.7386C48.878 21.7386 49.4088 21.0485 49.223 20.8628C48.9576 20.6239 48.3206 20.9689 48.3206 21.3671ZM3.59827 21.1547C3.67789 21.2343 3.89022 21.1547 4.07601 20.9689C4.31488 20.7035 4.28834 20.677 3.91676 20.8362C3.65135 20.9158 3.51864 21.0751 3.59827 21.1547ZM47.8163 22.0306C48.1614 22.296 48.5064 22.4287 48.586 22.3756C48.6657 22.296 48.5064 22.1102 48.241 21.9775C48.0021 21.8183 47.8429 21.6059 47.9225 21.4467C48.0021 21.314 47.8959 21.2874 47.6305 21.3936C47.259 21.5263 47.2855 21.6059 47.8163 22.0306ZM26.9547 21.4732C26.8751 21.6325 27.0609 21.7386 27.4059 21.7386C27.8837 21.7386 27.9368 21.6855 27.6183 21.4732C27.114 21.1547 27.1405 21.1547 26.9547 21.4732ZM16.7363 21.5794C16.7363 21.8713 17.2406 21.9775 17.3998 21.7386C17.4794 21.6059 17.3733 21.4732 17.1609 21.4732C16.9221 21.4732 16.7363 21.5263 16.7363 21.5794ZM31.5995 22.5349C31.8118 22.6941 32.1834 22.8003 32.3957 22.7737C32.6346 22.7737 32.5284 22.6145 32.1303 22.4022C31.4137 22.0306 30.9625 22.1367 31.5995 22.5349ZM25.6542 22.3225C25.7338 22.4287 25.9727 22.5349 26.185 22.5349C26.3974 22.5349 26.5566 22.6941 26.5566 22.9065C26.5566 23.1453 26.7424 23.2515 27.0609 23.1984C27.3529 23.1453 27.9102 23.1984 28.3349 23.3311C28.733 23.4373 28.9188 23.57 28.733 23.57C28.5738 23.5965 28.4145 23.7027 28.4145 23.8619C28.4145 24.207 29.1842 23.8885 29.7681 23.3046C30.1928 22.8799 30.1663 22.8534 29.2638 22.933C28.6003 22.9861 28.1757 22.8534 27.9633 22.5614C27.7244 22.2695 27.6448 22.2429 27.6183 22.4818C27.6183 22.7472 27.5121 22.7472 27.1936 22.4287C26.7955 22.004 25.4153 21.9244 25.6542 22.3225ZM22.9735 22.2694C23.0532 22.4022 23.5309 22.5083 23.9821 22.5083L24.8314 22.4552L23.9025 22.2694C23.3982 22.1633 22.947 22.0571 22.8939 22.0306C22.8408 22.0306 22.8939 22.1102 22.9735 22.2694ZM4.12909 22.2694C4.04947 22.4022 4.10255 22.5349 4.23526 22.5349C4.39451 22.5349 4.52722 22.4022 4.52722 22.2694C4.52722 22.1102 4.47414 22.004 4.42105 22.004C4.34143 22.004 4.20872 22.1102 4.12909 22.2694ZM6.91595 22.9861C6.91595 23.4107 7.18136 23.4107 7.79182 22.9595C8.24302 22.6145 8.21648 22.588 7.60603 22.641C7.2079 22.641 6.91595 22.8268 6.91595 22.9861ZM49.8069 23.1984C49.6477 23.6231 50.3112 24.0743 50.6297 23.7558C50.7359 23.6762 50.5766 23.5965 50.3112 23.5965C49.9396 23.5965 49.9131 23.5169 50.1785 23.1984C50.3643 22.9595 50.3908 22.8003 50.2316 22.8003C50.0989 22.8003 49.8866 22.9861 49.8069 23.1984ZM23.292 23.1188C23.3451 23.2515 23.6901 23.3311 24.0617 23.3311C24.4333 23.3311 24.6722 23.2515 24.6191 23.1188C24.5395 23.0126 24.1944 22.933 23.8228 22.933C23.4513 22.933 23.2124 23.0126 23.292 23.1188ZM31.5995 23.3311C31.5995 23.4638 31.7322 23.5965 31.8915 23.5965C32.0242 23.5965 32.0772 23.4638 31.9976 23.3311C31.918 23.1719 31.7853 23.0657 31.7057 23.0657C31.6526 23.0657 31.5995 23.1719 31.5995 23.3311ZM47.5244 23.7292C47.5244 23.7558 47.7367 23.8619 48.0021 23.915C48.2941 23.9946 48.5064 23.915 48.5064 23.7292C48.5064 23.5434 48.2941 23.4638 48.0021 23.5434C47.7367 23.5965 47.5244 23.7027 47.5244 23.7292ZM30.3786 24.0212C30.8298 24.4459 31.2279 24.4989 31.4668 24.1274C31.5464 23.9946 31.4668 23.9416 31.2545 24.0212C31.0421 24.1008 30.8033 23.9681 30.6971 23.7292C30.6175 23.4904 30.4317 23.3842 30.2724 23.4638C30.1132 23.57 30.1397 23.7823 30.3786 24.0212ZM14.6926 23.4904C14.7722 23.57 15.0111 23.5965 15.1969 23.5169C15.4092 23.4373 15.3296 23.3577 15.0376 23.3577C14.7457 23.3311 14.5864 23.4107 14.6926 23.4904ZM50.0193 24.6316C49.6211 24.9236 49.4884 25.2156 49.6477 25.3217C49.7804 25.4013 49.9131 25.3748 49.9131 25.2421C49.9131 25.1094 50.2051 25.0563 50.5501 25.1094C51.1075 25.2156 51.1871 25.1625 51.0544 24.6847C50.8686 23.9947 50.8155 23.9946 50.0193 24.6316ZM14.1883 25.0563C14.5245 25.3217 14.4803 25.4633 14.0556 25.481C13.1266 25.5075 12.5958 25.6402 12.0384 25.9587C11.6669 26.171 11.6403 26.2241 11.9588 26.2507C12.1977 26.2507 12.5162 26.118 12.6754 25.9587C12.8878 25.7464 13.047 25.7995 13.2594 26.1976C13.4982 26.6488 13.4717 26.808 13.1001 27.0204C12.8347 27.1796 12.7551 27.3123 12.9409 27.3123C13.1001 27.3123 13.3124 27.2062 13.4186 27.0735C13.4982 26.9142 13.8698 26.9673 14.2679 27.1796C14.7191 27.4185 15.0907 27.4716 15.2765 27.3123C15.4358 27.1796 15.7277 27.1796 15.9135 27.3123C16.4443 27.6308 17.2671 27.0469 17.2406 26.3834C17.214 25.9322 17.1875 25.9322 17.0813 26.3303C17.0282 26.5692 16.8424 26.7019 16.6832 26.6223C16.4974 26.5161 16.4709 26.5692 16.577 26.7284C16.7097 26.9407 16.577 27.0469 16.232 27.0469C15.7543 27.0469 15.7277 26.9673 15.94 26.3834C16.1524 25.7995 16.1258 25.7198 15.6481 25.7198C15.1703 25.7198 15.1438 25.7995 15.4092 26.118C15.7277 26.5161 15.5685 27.0469 15.0907 27.0469C14.958 27.0469 14.8784 26.8611 14.9845 26.6488C15.0907 26.3303 14.9846 26.2772 14.4272 26.3568L13.7371 26.4895L14.2679 25.9056C14.8784 25.2421 14.7988 24.6582 14.1352 24.6582C13.7371 24.6847 13.7636 24.7378 14.1883 25.0563ZM15.3561 25.2421C15.5685 25.4279 16.3912 25.534 17.0017 25.4544C17.2937 25.4279 17.2406 25.3483 16.869 25.2156C16.232 24.9501 15.0907 24.9767 15.3561 25.2421ZM39.0311 25.4544C39.0311 25.5871 39.0842 25.7198 39.1373 25.7198C39.2169 25.7198 39.3496 25.5871 39.4292 25.4544C39.5089 25.2952 39.4558 25.189 39.3231 25.189C39.1638 25.189 39.0311 25.2952 39.0311 25.4544ZM50.5236 25.8791C50.4705 26.0383 50.7624 26.3038 51.134 26.4895C51.6914 26.7284 51.9302 26.7284 52.1426 26.4895C52.3549 26.2507 52.3549 26.2241 52.116 26.3568C51.9302 26.463 51.6383 26.3038 51.4525 25.9853C51.1075 25.4544 50.6828 25.4014 50.5236 25.8791ZM31.5995 26.1445C31.5995 26.1976 31.7853 26.2507 31.9976 26.2507C32.21 26.2507 32.3957 26.1445 32.3957 25.9853C32.3957 25.8525 32.21 25.7995 31.9976 25.8791C31.7853 25.9853 31.5995 26.0914 31.5995 26.1445ZM5.77467 26.1445C5.82775 26.3303 6.06662 26.4099 6.27895 26.3303C6.73016 26.171 6.57091 25.7995 6.01354 25.7995C5.80121 25.7995 5.69504 25.9587 5.77467 26.1445ZM39.9601 26.7815C40.0397 26.9142 40.3582 27.0469 40.6236 27.0469C40.889 27.0469 41.2075 26.9142 41.2871 26.7815C41.3933 26.6222 41.1013 26.5161 40.6236 26.5161C40.1458 26.5161 39.8539 26.6222 39.9601 26.7815ZM9.83551 26.9142C9.54355 27.2592 9.57009 27.2858 9.96821 27.1531C10.2071 27.0469 10.499 27.1 10.6052 27.2592C10.7114 27.445 11.2157 27.6308 11.6934 27.7104C12.5427 27.8432 12.5693 27.8166 12.0119 27.5512C11.6934 27.3654 11.428 27.1265 11.428 27.0204C11.428 26.8877 11.2687 26.8611 11.0564 26.9408C10.8441 27.0204 10.6052 26.9673 10.499 26.808C10.2867 26.4365 10.2336 26.4365 9.83551 26.9142ZM51.3198 27.2062C51.3994 27.2858 51.6383 27.3123 51.8241 27.2327C52.0364 27.1531 51.9568 27.0735 51.6648 27.0735C51.3729 27.0469 51.2136 27.1265 51.3198 27.2062ZM49.7538 28.719C49.6211 28.9579 49.6477 28.9579 49.9131 28.719C50.152 28.4801 50.497 28.5067 51.2933 28.7987C52.3549 29.1702 52.9654 29.0906 52.6734 28.6129C52.5938 28.4536 52.3284 28.374 52.0895 28.4005C51.0809 28.4802 50.8951 28.4005 51.2402 27.9759C51.5056 27.6574 51.426 27.6574 50.7359 28.0024C50.2847 28.2147 49.8335 28.5598 49.7538 28.719ZM7.0752 28.1351C7.15482 28.2678 7.34061 28.3209 7.47332 28.2147C7.60603 28.1351 7.65911 27.9493 7.55294 27.8166C7.47332 27.6839 7.28753 27.6308 7.15482 27.737C7.02211 27.8166 6.96903 28.0024 7.0752 28.1351ZM30.4051 28.1086C30.3255 28.2413 30.3786 28.374 30.5113 28.374C30.6705 28.374 30.8033 28.2413 30.8033 28.1086C30.8033 27.9493 30.7502 27.8432 30.6971 27.8432C30.6175 27.8432 30.4848 27.9493 30.4051 28.1086ZM12.5693 28.5863C12.5427 28.8517 12.7285 29.0641 12.9674 29.0641C13.2063 29.0906 13.6575 29.1968 13.9229 29.3029C14.2945 29.4622 14.3741 29.4356 14.2414 29.2233C14.1352 29.0375 14.1883 28.9048 14.3476 28.9048C14.5068 28.9048 14.5599 28.7721 14.4803 28.6129C14.3741 28.4536 14.1618 28.4005 13.976 28.4536C13.7636 28.5332 12.702 28.2944 12.6224 28.1351C12.5958 28.1086 12.5958 28.3209 12.5693 28.5863ZM15.6746 28.6394C15.6746 28.7986 15.94 29.0375 16.2585 29.1702L16.869 29.4091H16.2851C15.9666 29.4356 15.6481 29.5418 15.5419 29.7011C15.4623 29.8338 15.2234 29.8868 15.0111 29.7807C14.7191 29.6745 14.6661 29.7541 14.7722 30.0726C14.9049 30.4442 14.8253 30.4708 14.2148 30.2319C13.339 29.9134 13.2859 29.9134 13.2859 30.2584C13.2859 30.3911 13.3921 30.4442 13.5513 30.3646C13.684 30.285 13.8167 30.3381 13.8167 30.4973C13.8167 30.6565 14.1087 30.7096 14.4803 30.6566C14.8253 30.5769 15.1969 30.6566 15.2765 30.7893C15.4888 31.1078 16.2055 31.1078 16.2055 30.7627C16.2055 30.6035 16.0197 30.4973 15.8073 30.4973C15.0111 30.4973 15.4358 29.9665 16.4709 29.7011C17.1875 29.5153 17.4794 29.3029 17.3733 29.0375C17.1609 28.4802 15.6746 28.1351 15.6746 28.6394ZM15.0111 28.6394C14.9315 28.7721 14.9845 28.9048 15.1173 28.9048C15.2765 28.9048 15.4092 28.7721 15.4092 28.6394C15.4092 28.4802 15.3561 28.374 15.303 28.374C15.2234 28.374 15.0907 28.4802 15.0111 28.6394ZM8.64114 28.9048C8.72076 29.0375 8.95964 29.0906 9.17197 28.9844C9.72934 28.7986 9.67626 28.6394 9.01272 28.6394C8.72076 28.6394 8.53498 28.7456 8.64114 28.9048ZM20.1867 29.9134C20.1867 30.0992 20.0805 30.2054 19.9478 30.1257C19.8151 30.0196 19.5231 30.0461 19.2843 30.1257C18.9392 30.2584 18.9127 30.3646 19.1516 30.6566C19.4966 31.0812 20.3194 31.1608 20.054 30.7627C19.9743 30.63 20.2132 30.4442 20.5848 30.3381C21.381 30.1523 21.4872 29.4622 20.7175 29.5153C20.4255 29.5418 20.1867 29.7011 20.1867 29.9134ZM17.5591 29.9665C17.4529 29.9665 17.3467 30.1523 17.3467 30.3646C17.3467 30.6035 17.6122 30.7627 17.9837 30.7627C18.3022 30.7627 18.5942 30.63 18.5942 30.4973C18.5942 30.3381 18.4349 30.2319 18.2491 30.2319C18.0368 30.2319 18.0634 30.1257 18.3288 29.9399C18.6473 29.7011 18.6473 29.6745 18.2491 29.8072C17.9837 29.8869 17.6652 29.9665 17.5591 29.9665ZM52.3018 30.2054C52.3018 30.7096 52.9654 30.975 53.2839 30.63C53.5493 30.3381 53.5227 30.2319 53.1512 30.1523C52.408 29.9399 52.3018 29.9665 52.3018 30.2054ZM42.3488 30.4973C42.4284 30.63 42.6407 30.7627 42.7734 30.7627C42.9327 30.7627 42.9592 30.63 42.8796 30.4973C42.8 30.3381 42.5877 30.2319 42.455 30.2319C42.2957 30.2319 42.2692 30.3381 42.3488 30.4973ZM34.3333 30.6566C34.4129 30.7362 34.6518 30.7627 34.8376 30.6831C35.0499 30.6035 34.9703 30.5239 34.6783 30.5239C34.3864 30.4973 34.2271 30.5769 34.3333 30.6566ZM22.0446 31.1343C22.0446 31.2139 22.1507 31.3466 22.31 31.4263C22.4427 31.5059 22.5754 31.4528 22.5754 31.3201C22.5754 31.1608 22.4427 31.0281 22.31 31.0281C22.1507 31.0281 22.0446 31.0812 22.0446 31.1343ZM18.7269 31.2935C18.6473 31.4263 18.7534 31.559 18.9658 31.559C19.2046 31.559 19.3904 31.4263 19.3904 31.2935C19.3904 31.1343 19.2843 31.0281 19.1516 31.0281C18.9923 31.0281 18.8065 31.1343 18.7269 31.2935ZM15.7542 31.8509C15.7277 32.2225 15.8339 32.249 16.6301 32.0102C17.7714 31.6651 17.7979 31.3732 16.6567 31.3997C16.0462 31.4263 15.7808 31.559 15.7542 31.8509ZM39.5619 31.6651C39.5619 31.7182 39.7477 31.8509 39.9866 31.9305C40.1989 32.0102 40.3051 31.9836 40.2255 31.8244C40.0662 31.559 39.5619 31.4528 39.5619 31.6651ZM23.1062 32.0898C23.2655 32.3817 23.5044 32.5675 23.6371 32.4879C23.7698 32.4083 23.929 32.4614 24.0352 32.6206C24.1413 32.7799 24.3271 32.833 24.4599 32.7268C24.8314 32.5145 24.1679 31.7713 23.7432 31.9305C23.5574 32.0102 23.3186 31.9571 23.2389 31.8244C22.9204 31.3201 22.8143 31.559 23.1062 32.0898ZM19.762 32.2225C19.0188 32.9657 18.5942 33.0718 18.5942 32.4879C18.5942 32.1694 18.5146 32.1694 18.1164 32.541C17.5325 33.0984 17.6122 33.4699 18.2491 33.2311C18.5411 33.1249 18.6207 33.1514 18.488 33.3638C18.1695 33.8946 18.6207 33.7088 19.6558 32.886C20.3725 32.3287 20.7175 32.196 20.7971 32.4083C20.8768 32.5941 20.9564 32.4879 20.9564 32.1429C20.9829 31.3732 20.5848 31.3997 19.762 32.2225ZM35.7665 32.2225C35.8461 32.4614 35.9788 32.5941 36.0319 32.5145C36.1115 32.4348 36.085 32.2756 35.9788 32.1163C35.74 31.6917 35.5807 31.7713 35.7665 32.2225ZM52.8857 33.1249C53.0184 33.178 53.3369 32.9922 53.5758 32.7533C53.8412 32.4879 53.8678 32.3552 53.682 32.4614C53.4962 32.5675 53.3635 32.5145 53.3635 32.3287C53.3635 32.1429 53.2042 32.2225 52.9919 32.5145C52.753 32.833 52.6999 33.0453 52.8857 33.1249ZM12.7551 32.3552C12.7551 32.4879 12.8878 32.6206 13.047 32.6206C13.1797 32.6206 13.2328 32.4879 13.1532 32.3552C13.0736 32.196 12.9409 32.0898 12.8612 32.0898C12.8081 32.0898 12.7551 32.196 12.7551 32.3552ZM39.8273 32.6206C39.8273 32.7533 39.8804 32.886 39.9335 32.886C40.0131 32.886 40.1458 32.7533 40.2255 32.6206C40.3051 32.4614 40.252 32.3552 40.1193 32.3552C39.9601 32.3552 39.8273 32.4614 39.8273 32.6206ZM16.7363 32.6206C16.7363 32.7533 16.869 32.886 17.0282 32.886C17.1609 32.886 17.214 32.7533 17.1344 32.6206C17.0548 32.4614 16.9221 32.3552 16.8424 32.3552C16.7894 32.3552 16.7363 32.4614 16.7363 32.6206ZM21.7792 32.9391C21.7792 33.0453 22.018 33.1514 22.31 33.1514C22.6019 33.1514 22.8408 33.0453 22.8408 32.9126C22.8408 32.7533 22.6019 32.6737 22.31 32.7002C22.018 32.7268 21.7792 32.833 21.7792 32.9391ZM25.0172 33.3638C24.858 33.8415 25.8931 33.7619 26.2912 33.2576C26.6097 32.9126 26.5566 32.8595 25.8931 32.9657C25.4684 33.0187 25.0703 33.2045 25.0172 33.3638ZM23.3716 33.6557C23.292 33.6823 23.4513 33.815 23.7167 33.9742C24.0883 34.1866 24.1413 34.3458 23.8759 34.6378C23.6371 34.9297 23.4778 34.9563 23.2124 34.7174C23.0001 34.5581 22.8408 34.4785 22.8408 34.5847C22.8408 34.8501 24.9907 36.1241 25.1765 35.9648C25.2561 35.8852 25.203 35.8056 25.0438 35.8056C24.8845 35.8056 24.6987 35.5667 24.6191 35.2748C24.5129 34.8766 24.6191 34.7439 24.9641 34.7439C25.2561 34.7439 25.4153 34.9297 25.3888 35.1951C25.3623 35.4871 25.6277 35.6994 26.2116 35.8321C26.9547 35.9648 27.0875 35.9383 27.0875 35.5136C27.0875 35.1421 26.9017 35.0093 26.4239 35.0093C25.6808 35.0093 25.5746 34.7705 26.0789 34.2397C26.3708 33.9477 26.3178 33.9477 25.84 34.2397C25.3623 34.5051 25.203 34.5051 24.858 34.2397C24.6191 34.0539 24.4864 33.7884 24.566 33.6823C24.6722 33.523 23.8494 33.4965 23.3716 33.6557ZM19.2577 33.6823C19.3373 33.815 19.6824 33.9477 20.0009 33.9212C20.5583 33.9212 20.5583 33.8946 20.054 33.6823C19.3108 33.3638 19.0719 33.3638 19.2577 33.6823ZM37.2528 34.3724C37.3325 34.452 37.5713 34.4785 37.7571 34.3989C37.9694 34.3193 37.8898 34.2397 37.5979 34.2397C37.3059 34.2131 37.1467 34.2927 37.2528 34.3724ZM29.1842 34.7439C29.1842 35.0359 29.1311 35.0624 29.025 34.7705C28.8923 34.4785 28.8392 34.4785 28.6534 34.7705C28.4941 35.0624 28.3614 35.0624 28.096 34.797C27.6979 34.3989 27.3529 34.3724 27.3529 34.7439C27.3529 34.8766 27.8306 35.089 28.4145 35.1686C28.9719 35.2748 29.4496 35.4075 29.4231 35.5136C29.37 36.071 29.5293 36.3099 30.007 36.2568C30.6971 36.2037 30.6705 35.9648 29.9274 35.434C29.37 35.0359 29.37 35.0094 29.8478 34.6378C30.3255 34.2662 30.3255 34.2396 29.7681 34.2927C29.4762 34.3193 29.2108 34.5051 29.1842 34.7439ZM21.7261 35.2748C21.5668 35.2748 21.5137 35.3544 21.5934 35.4606C21.6995 35.5402 21.6465 35.7791 21.4872 35.9648C21.3014 36.1772 21.328 36.3364 21.5403 36.4957C21.7526 36.6018 21.7792 36.5753 21.673 36.3895C21.4872 36.071 21.8057 35.9914 22.9735 36.0179C23.3982 36.0445 23.3982 36.0179 23.0532 35.9118C22.7612 35.8321 22.655 35.6198 22.7612 35.3544C22.8939 35.0093 22.8143 34.9563 22.4692 35.089C22.2038 35.1951 21.8588 35.2748 21.7261 35.2748ZM19.5231 35.2748C19.6028 35.4075 19.8416 35.5402 20.0009 35.5402C20.1867 35.5402 20.1601 35.434 19.9213 35.2748C19.417 34.9563 19.3108 34.9563 19.5231 35.2748ZM28.2287 35.6994C28.3084 35.7791 28.5472 35.8056 28.733 35.726C28.9454 35.6463 28.8657 35.5667 28.5738 35.5667C28.2818 35.5402 28.1226 35.6198 28.2287 35.6994ZM32.7939 36.8142C32.8735 36.8938 33.0858 36.8142 33.2716 36.6284C33.5105 36.363 33.4839 36.3364 33.1124 36.4957C32.8469 36.5753 32.7142 36.7345 32.7939 36.8142ZM28.0164 36.6018C28.096 36.7345 28.0164 36.8672 27.8041 36.8672C27.6183 36.8672 27.4325 37.053 27.4325 37.2654C27.4325 37.6104 27.5121 37.6104 27.9102 37.2388C28.3349 36.8407 28.388 36.3364 27.9899 36.3364C27.9102 36.3364 27.9368 36.4426 28.0164 36.6018ZM54.4251 37.1327C54.1863 37.5573 54.2128 37.6104 54.5579 37.5042C54.7702 37.3981 54.956 37.4777 54.956 37.637C54.956 38.0085 55.6726 38.0085 55.8849 37.6635C55.9911 37.5042 55.9645 37.3981 55.8318 37.4246C55.3276 37.5043 54.956 37.3715 54.956 37.1061C54.956 36.9469 55.1418 36.8673 55.3541 36.9734C55.5664 37.053 55.7522 37 55.7522 36.8672C55.7522 36.3895 54.7171 36.6018 54.4251 37.1327ZM40.597 37.5042C40.7828 37.7166 41.2871 37.8758 41.7118 37.8758C42.2161 37.8493 42.3753 37.7697 42.1895 37.637C42.0037 37.5308 41.7649 37.4777 41.6587 37.5573C41.5525 37.6104 41.3933 37.5573 41.2871 37.3981C41.2075 37.2654 40.9421 37.1327 40.7032 37.1327C40.3847 37.1327 40.3582 37.2123 40.597 37.5042ZM29.1311 37.4512C29.1842 37.5839 29.025 37.6635 28.7596 37.6635C28.4942 37.6635 28.7065 37.8758 29.2904 38.1943C29.8478 38.4863 30.4051 38.6721 30.5378 38.5924C30.6971 38.4863 30.8033 38.5659 30.8033 38.7252C30.8033 38.8844 30.936 38.9375 31.0952 38.8313C31.4933 38.5924 30.8563 38.1943 30.007 38.1943H29.3435L30.007 37.6635L30.6705 37.1592L29.8212 37.2123C29.37 37.2388 29.0515 37.345 29.1311 37.4512ZM34.3864 38.9906C34.466 39.1233 34.6783 39.256 34.811 39.256C34.9703 39.256 34.9968 39.1233 34.9172 38.9906C34.8376 38.8313 34.6252 38.7252 34.4925 38.7252C34.3333 38.7252 34.3067 38.8313 34.3864 38.9906ZM25.8931 38.9906C25.9727 39.1233 26.3178 39.256 26.6362 39.2294C27.1671 39.2029 27.1671 39.1764 26.5566 38.9906C26.185 38.8844 25.8665 38.7782 25.8135 38.7517C25.7604 38.7252 25.8135 38.8313 25.8931 38.9906ZM31.5995 39.256C31.281 39.4683 31.3606 39.5214 31.9445 39.5214C32.3692 39.5214 32.6346 39.4152 32.5284 39.256C32.3161 38.9375 32.1038 38.9375 31.5995 39.256ZM36.8016 40.1584C36.8812 40.3973 37.1201 40.4769 37.3855 40.3973C37.7837 40.238 37.6244 40.1053 36.722 39.8134C36.6955 39.7868 36.722 39.9461 36.8016 40.1584ZM34.7048 40.3176C34.1209 40.3176 34.3333 40.7423 35.0233 40.9281C35.3684 41.0077 35.5011 40.9546 35.4215 40.7158C35.3418 40.53 35.3949 40.2911 35.5542 40.1849C35.7134 40.1053 35.8461 40.2115 35.8461 40.4769C35.8461 40.7423 35.9258 40.875 36.0054 40.7688C36.1115 40.6892 36.1115 40.3973 36.0054 40.1584C35.8727 39.8134 35.7665 39.7603 35.5276 39.9991C35.3418 40.1849 34.9968 40.3176 34.7048 40.3176ZM33.3512 40.1849C33.4574 40.3973 33.6166 40.5034 33.7494 40.4238C34.1209 40.2115 34.0148 39.7868 33.5901 39.7868C33.3512 39.7868 33.2716 39.9461 33.3512 40.1849ZM56.1503 40.8485C55.938 41.1935 56.283 41.1935 56.8139 40.8485C57.1589 40.6361 57.1589 40.583 56.7608 40.583C56.5219 40.583 56.23 40.6892 56.1503 40.8485ZM37.5713 40.8485C37.6509 40.9812 37.8898 41.1139 38.0491 41.1139C38.2349 41.1139 38.2083 41.0077 37.9694 40.8485C37.4652 40.53 37.359 40.53 37.5713 40.8485ZM37.3059 42.1755C37.2263 42.3082 37.3325 42.441 37.5713 42.441C37.8102 42.441 37.9164 42.3082 37.8367 42.1755C37.7571 42.0163 37.6244 41.9101 37.5713 41.9101C37.5182 41.9101 37.3855 42.0163 37.3059 42.1755ZM31.5995 42.0163C31.5995 42.0694 31.8384 42.1755 32.1303 42.2552C32.4223 42.3348 32.6081 42.2817 32.5019 42.149C32.3692 41.9101 31.5995 41.804 31.5995 42.0163ZM39.1904 42.4144C39.1107 42.494 39.3496 42.6267 39.7212 42.6533C40.0662 42.6798 40.3582 42.6002 40.3582 42.494C40.3582 42.2286 39.3496 42.149 39.1904 42.4144ZM33.829 42.9187C33.7759 43.2637 33.9617 43.3699 34.6518 43.3965C35.1561 43.3965 35.5807 43.3168 35.5807 43.1841C35.5807 43.0779 35.3418 42.9718 35.0764 42.9718C34.811 42.9718 34.4925 42.786 34.4129 42.5471C34.2271 42.0428 33.9086 42.2286 33.829 42.9187ZM35.8461 42.9187C35.8461 43.0514 36.0319 43.1576 36.2443 43.1576C36.4566 43.1576 36.5627 43.0514 36.4831 42.9187C36.4035 42.8125 36.2443 42.7064 36.085 42.7064C35.9523 42.7064 35.8461 42.8125 35.8461 42.9187ZM31.3341 42.9718C31.3341 43.1045 31.5199 43.1576 31.7322 43.078C31.9445 42.9718 32.1303 42.8656 32.1303 42.8125C32.1303 42.7595 31.9445 42.7064 31.7322 42.7064C31.5199 42.7064 31.3341 42.8125 31.3341 42.9718ZM37.8633 43.2107C37.4652 43.3699 37.4386 43.4761 37.6775 43.6353C37.8633 43.7415 38.1022 43.7149 38.2083 43.5557C38.2879 43.423 38.6064 43.2372 38.8984 43.1576L39.4292 43.0249H38.8984C38.6064 43.0249 38.1287 43.1045 37.8633 43.2107ZM40.3847 44.3254C40.889 44.6439 41.4198 44.6174 41.4198 44.2723C41.4198 44.1131 41.2606 44.0334 41.0483 44.1131C40.8359 44.1927 40.597 44.06 40.4909 43.8211C40.3316 43.4761 40.2786 43.4495 40.1724 43.7415C40.0928 43.9273 40.1989 44.1927 40.3847 44.3254ZM34.5191 44.1396C34.5191 44.2192 34.6252 44.3519 34.7845 44.4316C34.9172 44.5112 35.0499 44.4581 35.0499 44.3254C35.0499 44.1662 34.9172 44.0334 34.7845 44.0334C34.6252 44.0334 34.5191 44.0865 34.5191 44.1396ZM41.2075 44.8562C40.6767 45.334 40.5705 45.3605 40.1989 44.9889C39.6416 44.405 39.3761 44.4581 39.907 45.042C40.4909 45.679 40.0928 46.316 39.3496 45.9179C38.6595 45.5463 38.4207 45.5463 38.633 45.9179C38.7391 46.0771 38.5799 46.0506 38.2614 45.8383L37.704 45.4932L38.2879 45.3074C38.6949 45.2013 38.7038 45.1393 38.3145 45.1216C37.996 45.0951 37.6509 45.2278 37.5713 45.3605C37.4652 45.5198 37.2794 45.5463 37.1201 45.4667C36.9609 45.3605 36.8812 45.4401 36.9609 45.6525C37.0405 45.8648 37.359 45.9975 37.6509 45.9444C38.0756 45.8913 38.1818 45.971 38.0756 46.2629C37.9694 46.5549 38.0756 46.6876 38.3941 46.6876C38.633 46.6876 39.0842 46.8734 39.3496 47.1388C39.8008 47.5369 39.8273 47.5369 39.8273 47.1388C39.8273 46.8734 39.6681 46.6876 39.4823 46.661C39.3231 46.661 39.5089 46.5283 39.9601 46.3691C40.9155 46.024 41.4729 45.4932 41.2075 45.2013C41.1013 45.0686 41.2075 45.1216 41.4198 45.2544C42.0303 45.7056 43.0654 45.8383 43.8086 45.6259C44.2863 45.4667 44.3394 45.3871 43.9944 45.3605C43.7555 45.334 43.437 45.2809 43.3308 45.2544C43.1981 45.2544 42.9062 45.0155 42.6407 44.7501C42.0568 44.1661 41.9241 44.1927 41.2075 44.8562ZM30.2724 45.0951C30.2724 45.2278 30.3255 45.3605 30.3786 45.3605C30.4582 45.3605 30.5909 45.2278 30.6705 45.0951C30.7502 44.9358 30.6971 44.8297 30.5644 44.8297C30.4051 44.8297 30.2724 44.9358 30.2724 45.0951ZM31.5199 45.6259C31.4402 45.9179 31.4668 46.1568 31.5995 46.1568C31.7057 46.1568 31.8649 45.9179 31.9445 45.6259C32.0242 45.334 31.9976 45.0951 31.8649 45.0951C31.7587 45.0951 31.5995 45.334 31.5199 45.6259ZM55.2214 46.1568C55.2214 46.2895 55.3541 46.4222 55.5133 46.4222C55.6461 46.4222 55.6991 46.2895 55.6195 46.1568C55.5399 45.9975 55.4072 45.8913 55.3276 45.8913C55.2745 45.8913 55.2214 45.9975 55.2214 46.1568ZM42.0303 46.2629C41.9507 46.3426 42.2957 46.4222 42.8531 46.4222C43.4104 46.4222 43.782 46.5283 43.6759 46.6876C43.5962 46.8203 43.5697 46.953 43.6493 46.953C43.7289 46.953 43.9147 46.7407 44.0474 46.4753C44.2598 46.0771 44.1536 46.0241 43.2512 46.0506C42.6673 46.0771 42.1365 46.1568 42.0303 46.2629ZM33.3247 46.8999C33.4043 46.9795 33.6166 46.8999 33.8024 46.7141C34.0413 46.4487 34.0148 46.4222 33.6432 46.5814C33.3778 46.6611 33.2451 46.8203 33.3247 46.8999ZM45.8523 47.2715C45.7461 47.5369 45.6399 47.5104 45.4276 47.2184C45.1887 46.8734 45.1356 46.8734 45.1356 47.298C45.1356 47.5634 45.4276 47.882 45.7992 48.0147C46.1708 48.1474 46.4627 48.3862 46.4627 48.519C46.4627 48.6517 46.7812 48.7313 47.1528 48.6517C47.6305 48.572 47.7632 48.6251 47.6305 48.8375C47.5244 49.0498 47.5509 49.0763 47.7632 48.9702C48.0021 48.8109 48.0021 48.6782 47.7632 48.3862C47.5244 48.0943 47.5774 48.0147 48.0287 48.0147C48.3206 48.0147 48.586 47.882 48.586 47.7492C48.586 47.3777 47.7102 47.4042 47.312 47.8023C47.0732 48.0412 46.9935 48.0147 46.9935 47.6962C46.9935 47.298 46.675 47.0326 46.1442 46.9795C46.0646 46.953 45.9053 47.1123 45.8523 47.2715ZM44.3659 47.5369C44.3394 47.3777 44.1801 47.2184 43.9944 47.2184C43.8351 47.245 43.9678 47.4838 44.3129 47.7758C45.056 48.3862 45.1622 48.3332 44.9498 47.4838C44.7906 46.8999 44.7641 46.8734 44.5783 47.3777C44.4721 47.6431 44.3659 47.7227 44.3659 47.5369ZM40.889 48.0412C41.3137 48.4659 41.8976 48.8109 42.163 48.8109C42.9062 48.8109 43.0654 49.1029 42.5346 49.501C42.2692 49.7133 42.3134 49.7752 42.6673 49.6868C43.0389 49.6071 43.2777 49.6602 43.2777 49.8726C43.2777 50.0583 43.4104 50.0318 43.6759 49.7664C43.8882 49.5541 44.074 49.3152 44.074 49.2356C44.074 49.1559 43.8882 49.0763 43.6759 49.0763C43.4635 49.0763 43.2777 48.9171 43.2777 48.7313C43.2777 48.5189 42.8265 48.2535 42.2692 48.1208C41.6056 47.9616 41.3137 47.7492 41.3668 47.4573C41.4198 47.1388 41.2606 47.0592 40.7563 47.1653L40.0928 47.2715L40.889 48.0412ZM51.9037 47.7492C51.9833 47.882 51.9302 48.0147 51.771 48.0147C51.6118 48.0147 51.5587 48.1208 51.6383 48.2801C51.7179 48.4128 51.5056 48.6782 51.134 48.864C50.7624 49.0232 50.4439 49.2621 50.4439 49.3948C50.4439 49.5275 50.3378 49.5806 50.2051 49.4744C50.0723 49.3948 49.8866 49.4479 49.7804 49.6071C49.4884 50.0583 50.497 49.8991 50.842 49.4214C51.0544 49.1559 51.5321 48.9967 52.1957 48.9967C52.753 48.9967 52.9654 48.9436 52.6203 48.8905C52.1957 48.8109 52.0364 48.6516 52.1426 48.3597C52.3018 47.9881 52.1426 47.4838 51.8772 47.4838C51.7975 47.4838 51.8241 47.59 51.9037 47.7492ZM42.2161 47.7492C42.2161 47.882 42.2692 48.0147 42.3222 48.0147C42.4019 48.0147 42.5346 47.882 42.6142 47.7492C42.6938 47.59 42.6407 47.4838 42.508 47.4838C42.3488 47.4838 42.2161 47.59 42.2161 47.7492ZM50.0458 48.0147C50.1254 48.1474 50.3643 48.2801 50.5236 48.2801C50.7093 48.2801 50.6828 48.1739 50.4439 48.0147C49.9396 47.6962 49.8335 47.6962 50.0458 48.0147ZM43.5431 48.6782C43.5431 48.7047 43.7555 48.8109 44.0209 48.864C44.3129 48.9436 44.5252 48.864 44.5252 48.6782C44.5252 48.4924 44.3129 48.4128 44.0209 48.4924C43.7555 48.5455 43.5431 48.6517 43.5431 48.6782ZM52.8592 49.7399C52.3815 49.8991 52.3284 49.9787 52.5938 50.1645C52.8061 50.2972 53.0715 50.4034 53.2308 50.4034C53.3635 50.4034 53.3104 50.2707 53.0981 50.138C52.7796 49.9256 52.8327 49.8726 53.3635 49.846C53.7351 49.8195 54.0801 49.8195 54.1597 49.8195C54.2394 49.8195 54.3455 49.5806 54.3455 49.2886C54.3986 48.8109 54.3455 48.7844 53.9474 49.1559C53.7085 49.3683 53.2042 49.6337 52.8592 49.7399ZM48.7187 50.138C48.6391 50.2972 48.7453 50.3238 48.9576 50.2441C49.4354 50.0584 49.515 49.8726 49.1434 49.8726C48.9841 49.8726 48.7984 49.9787 48.7187 50.138ZM43.9678 50.0849C43.9147 50.1911 44.074 50.3238 44.3659 50.3238C44.6579 50.3503 44.8171 50.2707 44.7375 50.1114C44.5517 49.8195 44.1536 49.7929 43.9678 50.0849ZM46.33 50.6688C46.33 50.8546 46.5158 51.0935 46.7281 51.1465C47.0732 51.2527 47.0732 51.2262 46.7812 50.8811C46.5423 50.5892 46.5423 50.4034 46.7281 50.3238C46.8874 50.2441 46.8608 50.2176 46.675 50.2441C46.4893 50.2972 46.33 50.483 46.33 50.6688ZM48.1348 50.8281C48.2144 50.9077 48.4533 50.9342 48.6391 50.8546C48.8514 50.775 48.7718 50.6954 48.4799 50.6954C48.1879 50.6688 48.0287 50.7484 48.1348 50.8281ZM55.4868 51.3323C55.1948 51.6774 55.2214 51.7039 55.593 51.5712C55.8318 51.4916 56.0176 51.3058 56.0176 51.1731C56.0176 50.8281 55.8584 50.8811 55.4868 51.3323ZM51.9037 51.4385C51.9833 51.5978 52.1957 51.7305 52.3284 51.7305C52.4611 51.7305 52.4345 51.5712 52.2487 51.3589C51.8772 50.9342 51.6118 51.0138 51.9037 51.4385ZM49.4619 51.2527C49.4619 51.4385 49.7804 51.6243 50.152 51.6508L50.842 51.6774L50.1785 51.3058C49.8069 51.12 49.515 50.9608 49.4884 50.9342C49.4884 50.9342 49.4619 51.0935 49.4619 51.2527ZM41.1544 51.465C41.4198 51.9428 42.7469 52.1551 42.7469 51.7039C42.7469 51.3854 41.9772 51.2262 41.7914 51.5181C41.6852 51.7039 41.526 51.6508 41.3668 51.3589C41.0217 50.7484 40.8094 50.8281 41.1544 51.465ZM52.3815 53.2433C52.0895 53.668 52.0895 53.8538 52.3284 54.013C52.5407 54.1192 52.5672 54.0927 52.4611 53.9069C52.3549 53.7211 52.3815 53.5884 52.5407 53.5884C52.6734 53.5884 52.8857 53.8272 52.9654 54.1192C53.1512 54.7031 53.7616 54.8358 54.0536 54.3315C54.1597 54.1723 54.1332 54.1192 53.9739 54.1988C53.8147 54.305 53.4962 54.0926 53.2573 53.7211C52.8857 53.1372 52.8592 53.0575 53.2308 53.0575C53.4431 53.0575 53.6289 52.9514 53.6289 52.8187C53.6289 52.394 52.753 52.686 52.3815 53.2433ZM48.8514 53.4557C49.223 53.9069 49.6477 53.9865 49.6477 53.6149C49.6477 53.4822 49.4354 53.2964 49.1699 53.2433C48.9311 53.1637 48.6656 53.1106 48.6126 53.0841C48.5595 53.0841 48.6657 53.2433 48.8514 53.4557ZM42.7469 53.6149C42.7469 53.9069 43.4635 53.9334 43.6493 53.6414C43.7024 53.5353 43.5432 53.4026 43.2512 53.4026C42.9858 53.376 42.7469 53.4557 42.7469 53.6149ZM44.8702 53.8538C44.8702 53.9865 44.9233 54.1192 44.9764 54.1192C45.056 54.1192 45.1887 53.9865 45.2683 53.8538C45.348 53.6945 45.2949 53.5884 45.1622 53.5884C45.0029 53.5884 44.8702 53.6945 44.8702 53.8538ZM50.1785 54.7296C50.1785 54.7827 50.4439 55.0482 50.7624 55.3401L51.3729 55.8444L50.8686 55.2339C50.3908 54.6766 50.1785 54.5173 50.1785 54.7296ZM54.4251 55.1543C54.4251 55.3136 54.5313 55.4993 54.6906 55.579C54.8233 55.6586 54.956 55.5524 54.956 55.3401C54.956 55.1012 54.8233 54.9154 54.6906 54.9154C54.5313 54.9154 54.4251 55.0216 54.4251 55.1543ZM53.2573 55.3136C53.3635 55.5259 53.5227 55.7117 53.6554 55.7117C53.7881 55.7117 53.8943 55.5259 53.8943 55.3136C53.8943 55.1012 53.7085 54.9154 53.4962 54.9154C53.2573 54.9154 53.1777 55.0747 53.2573 55.3136ZM53.8943 56.1364C53.8943 56.3487 54.0005 56.4548 54.1597 56.3752C54.2924 56.2956 54.4251 56.1098 54.4251 55.9506C54.4251 55.8178 54.2924 55.7117 54.1597 55.7117C54.0005 55.7117 53.8943 55.8975 53.8943 56.1364ZM51.6383 56.0036C51.7179 56.0833 52.116 56.2425 52.5672 56.3221C53.3635 56.5079 53.6554 57.1449 53.0184 57.3838C52.8061 57.4634 52.8592 57.6227 53.2308 57.9146C53.8412 58.3924 54.4517 58.2331 54.2394 57.6227C54.1332 57.2776 54.1597 57.2511 54.3721 57.543C54.5313 57.7554 54.8498 57.835 55.1948 57.7023C55.6461 57.5696 55.6991 57.4369 55.4868 57.1715C55.3276 56.9857 55.2745 56.6406 55.3806 56.4018C55.4868 56.1098 55.4072 55.9771 55.0621 55.9771C54.7702 55.9771 54.664 56.0833 54.8233 56.1894C54.956 56.2956 55.1152 56.5875 55.1152 56.8264C55.1418 57.2245 55.0621 57.2511 54.5844 56.9857C54.2924 56.8264 53.8147 56.4814 53.5493 56.216C53.0981 55.7382 51.3729 55.5524 51.6383 56.0036ZM52.4876 59.454C52.0895 59.5337 52.1691 59.6664 52.8592 60.0645C53.5758 60.4891 53.682 60.4891 53.5493 60.1441C53.4697 59.9052 53.5758 59.6664 53.8412 59.5602C54.2128 59.4275 54.2128 59.3744 53.8943 59.1621C53.682 59.0294 53.39 59.0294 53.2308 59.1355C53.0981 59.2682 52.753 59.4009 52.4876 59.454ZM52.116 59.0559C52.1957 59.1355 52.4345 59.1621 52.6203 59.0824C52.8327 59.0028 52.753 58.9232 52.4611 58.9232C52.1691 58.8967 52.0099 58.9763 52.116 59.0559Z" fill="#352E5B"/>
</svg>
