<svg width="115" height="53" viewBox="0 0 115 53" fill="none" xmlns="http://www.w3.org/2000/svg">
<g filter="url(#filter0_d_0_1)">
<path d="M111.316 8.54313C111.316 6.44728 109.607 4.79049 107.527 4.53146C100.064 3.60187 99.0156 0 89.3202 0C78.1883 0 77.9215 4.74825 66.7897 4.74825C55.6578 4.74825 55.0968 0 43.965 0C32.8331 0 33.3948 4.74825 22.263 4.74825C12.564 4.74825 11.3161 2.08535 3.7927 1.39984C1.70549 1.20966 0 2.93947 0 5.03533V41.8772C0 43.9731 1.69902 45.6721 3.79488 45.6721H107.522C109.617 45.6721 111.316 43.9731 111.316 41.8772V8.54313Z" fill="#58EDE5"/>
<path d="M89.3202 1.10684C93.9917 1.10684 96.5307 1.96553 98.83 2.93675C99.173 3.0816 99.5146 3.23113 99.8603 3.38239C101.883 4.26782 104.043 5.21287 107.391 5.62981C109.01 5.83149 110.21 7.09516 110.21 8.54313V41.8772C110.21 43.3618 109.006 44.5653 107.522 44.5653H3.79488C2.31032 44.5653 1.10684 43.3618 1.10684 41.8772V5.03533C1.10684 3.51666 2.32458 2.37749 3.69226 2.50211C6.7733 2.78285 8.72995 3.3989 10.7881 4.04691C11.1498 4.16078 11.5146 4.27564 11.8892 4.38985C14.4385 5.16701 17.2849 5.85509 22.263 5.85509C28.0483 5.85509 30.854 4.60271 33.5675 3.38377L33.593 3.37232C36.1555 2.22118 38.6361 1.10684 43.965 1.10684C49.3148 1.10684 52.0829 2.23094 54.9494 3.39496L54.9609 3.39964C57.9367 4.60808 61.0148 5.85509 66.7897 5.85509C72.5673 5.85509 75.5738 4.60672 78.4805 3.39586L78.4956 3.3896C81.2828 2.22855 83.9755 1.10684 89.3202 1.10684Z" stroke="#19154A" stroke-width="2.21368"/>
</g>
<path d="M25.565 35.2326V18.755H31.8548V24.5798H42.1533V18.755H48.421V35.2326H42.1533V28.9649H31.8548V35.2326H25.565ZM60.8717 18.755V35.2326H54.604V18.755H60.8717ZM73.6541 35.2326V23.2509H66.5448V18.755H87.0532V23.2509H79.9439V35.2326H73.6541Z" fill="#352E5B"/>
<defs>
<filter id="filter0_d_0_1" x="0" y="0" width="114.795" height="52.7875" filterUnits="userSpaceOnUse" color-interpolation-filters="sRGB">
<feFlood flood-opacity="0" result="BackgroundImageFix"/>
<feColorMatrix in="SourceAlpha" type="matrix" values="0 0 0 0 0 0 0 0 0 0 0 0 0 0 0 0 0 0 127 0" result="hardAlpha"/>
<feOffset dx="3.47864" dy="7.11539"/>
<feComposite in2="hardAlpha" operator="out"/>
<feColorMatrix type="matrix" values="0 0 0 0 0.207843 0 0 0 0 0.180392 0 0 0 0 0.356863 0 0 0 1 0"/>
<feBlend mode="normal" in2="BackgroundImageFix" result="effect1_dropShadow_0_1"/>
<feBlend mode="normal" in="SourceGraphic" in2="effect1_dropShadow_0_1" result="shape"/>
</filter>
</defs>
</svg>
