<svg width="601" height="410" viewBox="0 0 601 410" fill="none" xmlns="http://www.w3.org/2000/svg">
<rect x="345" y="169" width="49" height="147" rx="24.5" fill="#CDF1FF"/>
<rect x="367" y="130" width="5" height="214" rx="2.5" fill="#CDF1FF"/>
<rect x="276" y="129" width="49" height="147" rx="24.5" fill="#CDF1FF"/>
<rect x="298" y="90" width="5" height="214" rx="2.5" fill="#CDF1FF"/>
<rect x="207" y="146" width="49" height="158" rx="24.5" fill="#58EDE5"/>
<rect x="229" y="117" width="5" height="222" rx="2.5" fill="#58EDE5"/>
<rect x="414" y="100" width="49" height="158" rx="24.5" fill="#58EDE5"/>
<rect x="436" y="71" width="5" height="222" rx="2.5" fill="#58EDE5"/>
<rect y="225" width="49" height="147" rx="24.5" fill="#CDF1FF"/>
<rect x="22" y="186" width="5" height="214" rx="2.5" fill="#CDF1FF"/>
<rect x="138" y="263" width="49" height="121" rx="24.5" fill="#CDF1FF"/>
<rect x="160" y="237" width="5" height="173" rx="2.5" fill="#CDF1FF"/>
<rect x="483" y="195" width="49" height="100" rx="24.5" fill="#CDF1FF"/>
<rect x="505" y="182" width="5" height="134" rx="2.5" fill="#CDF1FF"/>
<rect x="69" y="153" width="49" height="200" rx="24.5" fill="#58EDE5"/>
<rect x="91" y="127" width="5" height="238" rx="2.5" fill="#58EDE5"/>
<rect x="552" y="29" width="49" height="178" rx="24.5" fill="#58EDE5"/>
<rect x="574" width="5" height="240" rx="2.5" fill="#58EDE5"/>
</svg>
