<svg width="197.000000" height="50.000000" viewBox="0 0 197 50" fill="none" xmlns="http://www.w3.org/2000/svg" xmlns:xlink="http://www.w3.org/1999/xlink">
	<defs/>
	<path id="Coinmap" d="M98.18 13.34C98.18 14.84 96.86 16.07 95.26 16.07C93.66 16.07 92.35 14.84 92.35 13.34C92.35 11.84 93.66 10.61 95.26 10.61C96.86 10.61 98.18 11.84 98.18 13.34ZM55.62 11.74C61.62 11.74 66.14 15.18 66.86 21.16L61.32 21.16C60.91 18.32 58.74 16.58 55.75 16.58C51.74 16.58 49.11 19.66 49.11 25.05C49.11 30.59 51.78 33.51 55.71 33.51C58.63 33.51 60.81 31.91 61.32 29.14L66.86 29.17C66.27 33.93 62.26 38.35 55.62 38.35C48.69 38.35 43.56 33.49 43.56 25.05C43.56 16.57 48.78 11.74 55.62 11.74ZM89.03 28.36C89.03 34.34 85.37 38.38 79.48 38.38C73.58 38.38 69.91 34.34 69.91 28.36C69.91 22.34 73.58 18.32 79.48 18.32C85.37 18.32 89.03 22.34 89.03 28.36ZM111.31 22.8C109.13 22.8 107.64 24.26 107.63 26.76L107.63 38L102.24 38L102.24 18.57L107.38 18.57L107.38 22L107.6 22C108.47 19.74 110.56 18.32 113.45 18.32C117.49 18.32 120.15 21.1 120.15 25.62L120.15 38L114.76 38L114.76 26.59C114.78 24.21 113.47 22.8 111.31 22.8ZM129.77 38L124.38 38L124.38 18.57L129.52 18.57L129.52 22L129.75 22C130.56 19.71 132.54 18.32 135.16 18.32C137.83 18.32 139.82 19.74 140.43 22L140.63 22C141.43 19.77 143.65 18.32 146.49 18.32C150.11 18.32 152.62 20.72 152.62 24.93L152.62 38L147.24 38L147.24 26C147.24 23.83 145.95 22.75 144.23 22.75C142.27 22.75 141.12 24.12 141.12 26.13L141.12 38L135.89 38L135.89 25.88C135.89 23.97 134.7 22.75 132.94 22.75C131.14 22.75 129.77 24.19 129.77 26.33L129.77 38ZM168.08 35.3C167.13 37.11 165.28 38.36 162.4 38.36C158.7 38.36 155.96 36.41 155.96 32.57C155.96 28.23 159.41 26.94 163.25 26.59C166.63 26.26 167.96 26.09 167.96 24.84L167.96 24.77C167.96 23.17 166.9 22.25 165.07 22.25C163.14 22.25 161.98 23.2 161.62 24.49L156.64 24.08C157.38 20.54 160.44 18.32 165.1 18.32C169.43 18.32 173.35 20.27 173.35 24.89L173.35 38L168.23 38L168.23 35.3L168.08 35.3ZM182.92 45.28L177.53 45.28L177.53 18.57L182.84 18.57L182.84 21.83L183.08 21.83C183.81 20.25 185.36 18.32 188.6 18.32C192.87 18.32 196.47 21.63 196.47 28.31C196.47 34.8 193.02 38.31 188.6 38.31C185.46 38.31 183.83 36.5 183.08 34.88L182.92 34.88L182.92 45.28ZM97.94 38L92.55 38L92.55 18.57L97.94 18.57L97.94 38ZM75.39 28.32C75.39 31.71 76.78 34.2 79.5 34.2C82.17 34.2 83.56 31.71 83.56 28.32C83.56 24.93 82.17 22.42 79.5 22.42C76.78 22.42 75.39 24.93 75.39 28.32ZM186.89 22.6C184.27 22.6 182.81 24.81 182.81 28.28C182.81 31.74 184.29 34.02 186.89 34.02C189.54 34.02 190.97 31.67 190.97 28.28C190.97 24.92 189.56 22.6 186.89 22.6ZM161.1 32.4C161.1 33.87 162.29 34.65 163.95 34.65C166.31 34.65 167.99 33.09 167.99 31.05L167.99 28.99C167.35 29.42 165.43 29.7 164.25 29.87C162.36 30.13 161.1 30.87 161.1 32.4Z" fill="#352E5B" fill-opacity="1.000000" fill-rule="evenodd"/>
	<rect id="Rectangle 4219" x="12.352905" y="10.588135" rx="8.823530" width="17.647060" height="30.588236" fill="#352E5B" fill-opacity="1.000000"/>
	<rect id="Rectangle 4220" rx="8.823530" width="17.647060" height="30.588236" fill="#58EDE5" fill-opacity="1.000000"/>
</svg>
